<?xml version="1.0" encoding="UTF-8"?><svg xmlns="http://www.w3.org/2000/svg" xmlns:xlink="http://www.w3.org/1999/xlink" stroke-dasharray="none" shape-rendering="auto" font-family="'Dialog'" width="1293" text-rendering="auto" fill-opacity="1" contentScriptType="text/ecmascript" color-interpolation="auto" color-rendering="auto" preserveAspectRatio="xMidYMid meet" font-size="12" fill="black" stroke="black" image-rendering="auto" stroke-miterlimit="10" zoomAndPan="magnify" version="1.0" stroke-linecap="square" stroke-linejoin="miter" contentStyleType="text/css" font-style="normal" height="576" stroke-width="1" stroke-dashoffset="0" font-weight="normal" stroke-opacity="1">
<!--Generated by the Batik Graphics2D SVG Generator-->
<defs id="genericDefs"/>
<g>
<defs id="defs1">
<clipPath clipPathUnits="userSpaceOnUse" id="clipPath1">
<path d="M27 25 L1266 25 L1266 551 L27 551 L27 25 Z"/>
</clipPath>
<clipPath clipPathUnits="userSpaceOnUse" id="clipPath2">
<path d="M-1 -1 L1294 -1 L1294 577 L-1 577 L-1 -1 Z"/>
</clipPath>
</defs>
<g fill="white" text-rendering="geometricPrecision" font-family="'Segoe UI'" stroke-linejoin="round" stroke="white" stroke-width="0" stroke-miterlimit="0">
<rect x="28" y="26" clip-path="url(#clipPath1)" width="1237" height="524" stroke="none"/>
</g>
<g stroke-linecap="butt" fill="rgb(204,204,204)" text-rendering="geometricPrecision" font-family="'Segoe UI'" stroke-dasharray="3,3" stroke="rgb(204,204,204)">
<line clip-path="url(#clipPath1)" fill="none" x1="28" x2="28" y1="26" y2="550"/>
<line clip-path="url(#clipPath1)" fill="none" x1="79" x2="79" y1="26" y2="550"/>
<line clip-path="url(#clipPath1)" fill="none" x1="131" x2="131" y1="26" y2="550"/>
<line clip-path="url(#clipPath1)" fill="none" x1="182" x2="182" y1="26" y2="550"/>
<line clip-path="url(#clipPath1)" fill="none" x1="234" x2="234" y1="26" y2="550"/>
<line clip-path="url(#clipPath1)" fill="none" x1="285" x2="285" y1="26" y2="550"/>
<line clip-path="url(#clipPath1)" fill="none" x1="337" x2="337" y1="26" y2="550"/>
<line clip-path="url(#clipPath1)" fill="none" x1="388" x2="388" y1="26" y2="550"/>
<line clip-path="url(#clipPath1)" fill="none" x1="440" x2="440" y1="26" y2="550"/>
<line clip-path="url(#clipPath1)" fill="none" x1="491" x2="491" y1="26" y2="550"/>
<line clip-path="url(#clipPath1)" fill="none" x1="543" x2="543" y1="26" y2="550"/>
<line clip-path="url(#clipPath1)" fill="none" x1="594" x2="594" y1="26" y2="550"/>
<line clip-path="url(#clipPath1)" fill="none" x1="646" x2="646" y1="26" y2="550"/>
<line clip-path="url(#clipPath1)" fill="none" x1="697" x2="697" y1="26" y2="550"/>
<line clip-path="url(#clipPath1)" fill="none" x1="749" x2="749" y1="26" y2="550"/>
<line clip-path="url(#clipPath1)" fill="none" x1="800" x2="800" y1="26" y2="550"/>
<line clip-path="url(#clipPath1)" fill="none" x1="852" x2="852" y1="26" y2="550"/>
<line clip-path="url(#clipPath1)" fill="none" x1="903" x2="903" y1="26" y2="550"/>
<line clip-path="url(#clipPath1)" fill="none" x1="955" x2="955" y1="26" y2="550"/>
<line clip-path="url(#clipPath1)" fill="none" x1="1007" x2="1007" y1="26" y2="550"/>
<line clip-path="url(#clipPath1)" fill="none" x1="1058" x2="1058" y1="26" y2="550"/>
<line clip-path="url(#clipPath1)" fill="none" x1="1110" x2="1110" y1="26" y2="550"/>
<line clip-path="url(#clipPath1)" fill="none" x1="1161" x2="1161" y1="26" y2="550"/>
<line clip-path="url(#clipPath1)" fill="none" x1="1213" x2="1213" y1="26" y2="550"/>
<line clip-path="url(#clipPath1)" fill="none" x1="1264" x2="1264" y1="26" y2="550"/>
<line clip-path="url(#clipPath1)" fill="none" x1="28" x2="1265" y1="550" y2="550"/>
<line clip-path="url(#clipPath1)" fill="none" x1="28" x2="1265" y1="462" y2="462"/>
<line clip-path="url(#clipPath1)" fill="none" x1="28" x2="1265" y1="375" y2="375"/>
<line clip-path="url(#clipPath1)" fill="none" x1="28" x2="1265" y1="288" y2="288"/>
<line clip-path="url(#clipPath1)" fill="none" x1="28" x2="1265" y1="200" y2="200"/>
<line clip-path="url(#clipPath1)" fill="none" x1="28" x2="1265" y1="113" y2="113"/>
<line clip-path="url(#clipPath1)" fill="none" x1="28" x2="1265" y1="26" y2="26"/>
<rect x="28" y="544" clip-path="url(#clipPath1)" fill="rgb(0,0,139)" width="5" height="5" stroke="none"/>
<line clip-path="url(#clipPath1)" fill="none" x1="30" x2="205" y1="546" y2="542" stroke-dasharray="none" stroke="rgb(0,0,139)"/>
<rect x="203" y="540" clip-path="url(#clipPath1)" fill="rgb(0,0,139)" width="5" stroke-dasharray="none" height="5" stroke="none"/>
<line clip-path="url(#clipPath1)" fill="none" x1="205" x2="241" y1="542" y2="546" stroke-dasharray="none" stroke="rgb(0,0,139)"/>
<rect x="239" y="544" clip-path="url(#clipPath1)" fill="rgb(0,0,139)" width="5" stroke-dasharray="none" height="5" stroke="none"/>
<line clip-path="url(#clipPath1)" fill="none" x1="241" x2="311" y1="546" y2="542" stroke-dasharray="none" stroke="rgb(0,0,139)"/>
<rect x="309" y="540" clip-path="url(#clipPath1)" fill="rgb(0,0,139)" width="5" stroke-dasharray="none" height="5" stroke="none"/>
<line clip-path="url(#clipPath1)" fill="none" x1="311" x2="381" y1="542" y2="546" stroke-dasharray="none" stroke="rgb(0,0,139)"/>
<rect x="379" y="544" clip-path="url(#clipPath1)" fill="rgb(0,0,139)" width="5" stroke-dasharray="none" height="5" stroke="none"/>
<line clip-path="url(#clipPath1)" fill="none" x1="381" x2="404" y1="546" y2="542" stroke-dasharray="none" stroke="rgb(0,0,139)"/>
<rect x="402" y="540" clip-path="url(#clipPath1)" fill="rgb(0,0,139)" width="5" stroke-dasharray="none" height="5" stroke="none"/>
<line clip-path="url(#clipPath1)" fill="none" x1="404" x2="549" y1="542" y2="546" stroke-dasharray="none" stroke="rgb(0,0,139)"/>
<rect x="547" y="544" clip-path="url(#clipPath1)" fill="rgb(0,0,139)" width="5" stroke-dasharray="none" height="5" stroke="none"/>
<line clip-path="url(#clipPath1)" fill="none" x1="549" x2="779" y1="546" y2="542" stroke-dasharray="none" stroke="rgb(0,0,139)"/>
<rect x="777" y="540" clip-path="url(#clipPath1)" fill="rgb(0,0,139)" width="5" stroke-dasharray="none" height="5" stroke="none"/>
<line clip-path="url(#clipPath1)" fill="none" x1="779" x2="791" y1="542" y2="45" stroke-dasharray="none" stroke="rgb(0,0,139)"/>
<rect x="789" y="43" clip-path="url(#clipPath1)" fill="rgb(0,0,139)" width="5" stroke-dasharray="none" height="5" stroke="none"/>
<line clip-path="url(#clipPath1)" fill="none" x1="791" x2="1249" y1="45" y2="542" stroke-dasharray="none" stroke="rgb(0,0,139)"/>
<rect x="1247" y="540" clip-path="url(#clipPath1)" fill="rgb(0,0,139)" width="5" stroke-dasharray="none" height="5" stroke="none"/>
<rect x="28" y="26" clip-path="url(#clipPath2)" fill="none" width="1237" stroke-dasharray="none" height="524" stroke="black"/>
</g>
<g text-rendering="geometricPrecision" font-size="13" font-family="'Arial'" stroke-linecap="butt">
<line clip-path="url(#clipPath2)" fill="none" x1="28" x2="1265" y1="24" y2="24"/>
<line clip-path="url(#clipPath2)" fill="none" x1="28" x2="1265" y1="552" y2="552"/>
<line clip-path="url(#clipPath2)" fill="none" x1="28" x2="28" y1="20" y2="24"/>
<line clip-path="url(#clipPath2)" fill="none" x1="28" x2="28" y1="556" y2="552"/>
<text x="26" font-size="10" y="13" clip-path="url(#clipPath2)" stroke="none" xml:space="preserve">0</text>
<text x="26" font-size="10" y="567" clip-path="url(#clipPath2)" stroke="none" xml:space="preserve">0</text>
<line clip-path="url(#clipPath2)" fill="none" x1="38" x2="38" y1="22" y2="24"/>
<line clip-path="url(#clipPath2)" fill="none" x1="38" x2="38" y1="554" y2="552"/>
<line clip-path="url(#clipPath2)" fill="none" x1="48" x2="48" y1="22" y2="24"/>
<line clip-path="url(#clipPath2)" fill="none" x1="48" x2="48" y1="554" y2="552"/>
<line clip-path="url(#clipPath2)" fill="none" x1="58" x2="58" y1="22" y2="24"/>
<line clip-path="url(#clipPath2)" fill="none" x1="58" x2="58" y1="554" y2="552"/>
<line clip-path="url(#clipPath2)" fill="none" x1="69" x2="69" y1="22" y2="24"/>
<line clip-path="url(#clipPath2)" fill="none" x1="69" x2="69" y1="554" y2="552"/>
<line clip-path="url(#clipPath2)" fill="none" x1="79" x2="79" y1="20" y2="24"/>
<line clip-path="url(#clipPath2)" fill="none" x1="79" x2="79" y1="556" y2="552"/>
<text x="71" font-size="10" y="13" clip-path="url(#clipPath2)" stroke="none" xml:space="preserve">100</text>
<text x="71" font-size="10" y="567" clip-path="url(#clipPath2)" stroke="none" xml:space="preserve">100</text>
<line clip-path="url(#clipPath2)" fill="none" x1="89" x2="89" y1="22" y2="24"/>
<line clip-path="url(#clipPath2)" fill="none" x1="89" x2="89" y1="554" y2="552"/>
<line clip-path="url(#clipPath2)" fill="none" x1="100" x2="100" y1="22" y2="24"/>
<line clip-path="url(#clipPath2)" fill="none" x1="100" x2="100" y1="554" y2="552"/>
<line clip-path="url(#clipPath2)" fill="none" x1="110" x2="110" y1="22" y2="24"/>
<line clip-path="url(#clipPath2)" fill="none" x1="110" x2="110" y1="554" y2="552"/>
<line clip-path="url(#clipPath2)" fill="none" x1="120" x2="120" y1="22" y2="24"/>
<line clip-path="url(#clipPath2)" fill="none" x1="120" x2="120" y1="554" y2="552"/>
<line clip-path="url(#clipPath2)" fill="none" x1="131" x2="131" y1="20" y2="24"/>
<line clip-path="url(#clipPath2)" fill="none" x1="131" x2="131" y1="556" y2="552"/>
<text x="123" font-size="10" y="13" clip-path="url(#clipPath2)" stroke="none" xml:space="preserve">200</text>
<text x="123" font-size="10" y="567" clip-path="url(#clipPath2)" stroke="none" xml:space="preserve">200</text>
<line clip-path="url(#clipPath2)" fill="none" x1="141" x2="141" y1="22" y2="24"/>
<line clip-path="url(#clipPath2)" fill="none" x1="141" x2="141" y1="554" y2="552"/>
<line clip-path="url(#clipPath2)" fill="none" x1="151" x2="151" y1="22" y2="24"/>
<line clip-path="url(#clipPath2)" fill="none" x1="151" x2="151" y1="554" y2="552"/>
<line clip-path="url(#clipPath2)" fill="none" x1="161" x2="161" y1="22" y2="24"/>
<line clip-path="url(#clipPath2)" fill="none" x1="161" x2="161" y1="554" y2="552"/>
<line clip-path="url(#clipPath2)" fill="none" x1="172" x2="172" y1="22" y2="24"/>
<line clip-path="url(#clipPath2)" fill="none" x1="172" x2="172" y1="554" y2="552"/>
<line clip-path="url(#clipPath2)" fill="none" x1="182" x2="182" y1="20" y2="24"/>
<line clip-path="url(#clipPath2)" fill="none" x1="182" x2="182" y1="556" y2="552"/>
<text x="174" font-size="10" y="13" clip-path="url(#clipPath2)" stroke="none" xml:space="preserve">300</text>
<text x="174" font-size="10" y="567" clip-path="url(#clipPath2)" stroke="none" xml:space="preserve">300</text>
<line clip-path="url(#clipPath2)" fill="none" x1="192" x2="192" y1="22" y2="24"/>
<line clip-path="url(#clipPath2)" fill="none" x1="192" x2="192" y1="554" y2="552"/>
<line clip-path="url(#clipPath2)" fill="none" x1="203" x2="203" y1="22" y2="24"/>
<line clip-path="url(#clipPath2)" fill="none" x1="203" x2="203" y1="554" y2="552"/>
<line clip-path="url(#clipPath2)" fill="none" x1="213" x2="213" y1="22" y2="24"/>
<line clip-path="url(#clipPath2)" fill="none" x1="213" x2="213" y1="554" y2="552"/>
<line clip-path="url(#clipPath2)" fill="none" x1="223" x2="223" y1="22" y2="24"/>
<line clip-path="url(#clipPath2)" fill="none" x1="223" x2="223" y1="554" y2="552"/>
<line clip-path="url(#clipPath2)" fill="none" x1="234" x2="234" y1="20" y2="24"/>
<line clip-path="url(#clipPath2)" fill="none" x1="234" x2="234" y1="556" y2="552"/>
<text x="226" font-size="10" y="13" clip-path="url(#clipPath2)" stroke="none" xml:space="preserve">400</text>
<text x="226" font-size="10" y="567" clip-path="url(#clipPath2)" stroke="none" xml:space="preserve">400</text>
<line clip-path="url(#clipPath2)" fill="none" x1="244" x2="244" y1="22" y2="24"/>
<line clip-path="url(#clipPath2)" fill="none" x1="244" x2="244" y1="554" y2="552"/>
<line clip-path="url(#clipPath2)" fill="none" x1="254" x2="254" y1="22" y2="24"/>
<line clip-path="url(#clipPath2)" fill="none" x1="254" x2="254" y1="554" y2="552"/>
<line clip-path="url(#clipPath2)" fill="none" x1="265" x2="265" y1="22" y2="24"/>
<line clip-path="url(#clipPath2)" fill="none" x1="265" x2="265" y1="554" y2="552"/>
<line clip-path="url(#clipPath2)" fill="none" x1="275" x2="275" y1="22" y2="24"/>
<line clip-path="url(#clipPath2)" fill="none" x1="275" x2="275" y1="554" y2="552"/>
<line clip-path="url(#clipPath2)" fill="none" x1="285" x2="285" y1="20" y2="24"/>
<line clip-path="url(#clipPath2)" fill="none" x1="285" x2="285" y1="556" y2="552"/>
<text x="277" font-size="10" y="13" clip-path="url(#clipPath2)" stroke="none" xml:space="preserve">500</text>
<text x="277" font-size="10" y="567" clip-path="url(#clipPath2)" stroke="none" xml:space="preserve">500</text>
<line clip-path="url(#clipPath2)" fill="none" x1="295" x2="295" y1="22" y2="24"/>
<line clip-path="url(#clipPath2)" fill="none" x1="295" x2="295" y1="554" y2="552"/>
<line clip-path="url(#clipPath2)" fill="none" x1="306" x2="306" y1="22" y2="24"/>
<line clip-path="url(#clipPath2)" fill="none" x1="306" x2="306" y1="554" y2="552"/>
<line clip-path="url(#clipPath2)" fill="none" x1="316" x2="316" y1="22" y2="24"/>
<line clip-path="url(#clipPath2)" fill="none" x1="316" x2="316" y1="554" y2="552"/>
<line clip-path="url(#clipPath2)" fill="none" x1="326" x2="326" y1="22" y2="24"/>
<line clip-path="url(#clipPath2)" fill="none" x1="326" x2="326" y1="554" y2="552"/>
<line clip-path="url(#clipPath2)" fill="none" x1="337" x2="337" y1="20" y2="24"/>
<line clip-path="url(#clipPath2)" fill="none" x1="337" x2="337" y1="556" y2="552"/>
<text x="329" font-size="10" y="13" clip-path="url(#clipPath2)" stroke="none" xml:space="preserve">600</text>
<text x="329" font-size="10" y="567" clip-path="url(#clipPath2)" stroke="none" xml:space="preserve">600</text>
<line clip-path="url(#clipPath2)" fill="none" x1="347" x2="347" y1="22" y2="24"/>
<line clip-path="url(#clipPath2)" fill="none" x1="347" x2="347" y1="554" y2="552"/>
<line clip-path="url(#clipPath2)" fill="none" x1="357" x2="357" y1="22" y2="24"/>
<line clip-path="url(#clipPath2)" fill="none" x1="357" x2="357" y1="554" y2="552"/>
<line clip-path="url(#clipPath2)" fill="none" x1="368" x2="368" y1="22" y2="24"/>
<line clip-path="url(#clipPath2)" fill="none" x1="368" x2="368" y1="554" y2="552"/>
<line clip-path="url(#clipPath2)" fill="none" x1="378" x2="378" y1="22" y2="24"/>
<line clip-path="url(#clipPath2)" fill="none" x1="378" x2="378" y1="554" y2="552"/>
<line clip-path="url(#clipPath2)" fill="none" x1="388" x2="388" y1="20" y2="24"/>
<line clip-path="url(#clipPath2)" fill="none" x1="388" x2="388" y1="556" y2="552"/>
<text x="380" font-size="10" y="13" clip-path="url(#clipPath2)" stroke="none" xml:space="preserve">700</text>
<text x="380" font-size="10" y="567" clip-path="url(#clipPath2)" stroke="none" xml:space="preserve">700</text>
<line clip-path="url(#clipPath2)" fill="none" x1="399" x2="399" y1="22" y2="24"/>
<line clip-path="url(#clipPath2)" fill="none" x1="399" x2="399" y1="554" y2="552"/>
<line clip-path="url(#clipPath2)" fill="none" x1="409" x2="409" y1="22" y2="24"/>
<line clip-path="url(#clipPath2)" fill="none" x1="409" x2="409" y1="554" y2="552"/>
<line clip-path="url(#clipPath2)" fill="none" x1="419" x2="419" y1="22" y2="24"/>
<line clip-path="url(#clipPath2)" fill="none" x1="419" x2="419" y1="554" y2="552"/>
<line clip-path="url(#clipPath2)" fill="none" x1="429" x2="429" y1="22" y2="24"/>
<line clip-path="url(#clipPath2)" fill="none" x1="429" x2="429" y1="554" y2="552"/>
<line clip-path="url(#clipPath2)" fill="none" x1="440" x2="440" y1="20" y2="24"/>
<line clip-path="url(#clipPath2)" fill="none" x1="440" x2="440" y1="556" y2="552"/>
<text x="432" font-size="10" y="13" clip-path="url(#clipPath2)" stroke="none" xml:space="preserve">800</text>
<text x="432" font-size="10" y="567" clip-path="url(#clipPath2)" stroke="none" xml:space="preserve">800</text>
<line clip-path="url(#clipPath2)" fill="none" x1="450" x2="450" y1="22" y2="24"/>
<line clip-path="url(#clipPath2)" fill="none" x1="450" x2="450" y1="554" y2="552"/>
<line clip-path="url(#clipPath2)" fill="none" x1="460" x2="460" y1="22" y2="24"/>
<line clip-path="url(#clipPath2)" fill="none" x1="460" x2="460" y1="554" y2="552"/>
<line clip-path="url(#clipPath2)" fill="none" x1="471" x2="471" y1="22" y2="24"/>
<line clip-path="url(#clipPath2)" fill="none" x1="471" x2="471" y1="554" y2="552"/>
<line clip-path="url(#clipPath2)" fill="none" x1="481" x2="481" y1="22" y2="24"/>
<line clip-path="url(#clipPath2)" fill="none" x1="481" x2="481" y1="554" y2="552"/>
<line clip-path="url(#clipPath2)" fill="none" x1="491" x2="491" y1="20" y2="24"/>
<line clip-path="url(#clipPath2)" fill="none" x1="491" x2="491" y1="556" y2="552"/>
<text x="483" font-size="10" y="13" clip-path="url(#clipPath2)" stroke="none" xml:space="preserve">900</text>
<text x="483" font-size="10" y="567" clip-path="url(#clipPath2)" stroke="none" xml:space="preserve">900</text>
<line clip-path="url(#clipPath2)" fill="none" x1="502" x2="502" y1="22" y2="24"/>
<line clip-path="url(#clipPath2)" fill="none" x1="502" x2="502" y1="554" y2="552"/>
<line clip-path="url(#clipPath2)" fill="none" x1="512" x2="512" y1="22" y2="24"/>
<line clip-path="url(#clipPath2)" fill="none" x1="512" x2="512" y1="554" y2="552"/>
<line clip-path="url(#clipPath2)" fill="none" x1="522" x2="522" y1="22" y2="24"/>
<line clip-path="url(#clipPath2)" fill="none" x1="522" x2="522" y1="554" y2="552"/>
<line clip-path="url(#clipPath2)" fill="none" x1="532" x2="532" y1="22" y2="24"/>
<line clip-path="url(#clipPath2)" fill="none" x1="532" x2="532" y1="554" y2="552"/>
<line clip-path="url(#clipPath2)" fill="none" x1="543" x2="543" y1="20" y2="24"/>
<line clip-path="url(#clipPath2)" fill="none" x1="543" x2="543" y1="556" y2="552"/>
<text x="532" font-size="10" y="13" clip-path="url(#clipPath2)" stroke="none" xml:space="preserve">1000</text>
<text x="532" font-size="10" y="567" clip-path="url(#clipPath2)" stroke="none" xml:space="preserve">1000</text>
<line clip-path="url(#clipPath2)" fill="none" x1="553" x2="553" y1="22" y2="24"/>
<line clip-path="url(#clipPath2)" fill="none" x1="553" x2="553" y1="554" y2="552"/>
<line clip-path="url(#clipPath2)" fill="none" x1="563" x2="563" y1="22" y2="24"/>
<line clip-path="url(#clipPath2)" fill="none" x1="563" x2="563" y1="554" y2="552"/>
<line clip-path="url(#clipPath2)" fill="none" x1="574" x2="574" y1="22" y2="24"/>
<line clip-path="url(#clipPath2)" fill="none" x1="574" x2="574" y1="554" y2="552"/>
<line clip-path="url(#clipPath2)" fill="none" x1="584" x2="584" y1="22" y2="24"/>
<line clip-path="url(#clipPath2)" fill="none" x1="584" x2="584" y1="554" y2="552"/>
<line clip-path="url(#clipPath2)" fill="none" x1="594" x2="594" y1="20" y2="24"/>
<line clip-path="url(#clipPath2)" fill="none" x1="594" x2="594" y1="556" y2="552"/>
<text x="583" font-size="10" y="13" clip-path="url(#clipPath2)" stroke="none" xml:space="preserve">1100</text>
<text x="583" font-size="10" y="567" clip-path="url(#clipPath2)" stroke="none" xml:space="preserve">1100</text>
<line clip-path="url(#clipPath2)" fill="none" x1="605" x2="605" y1="22" y2="24"/>
<line clip-path="url(#clipPath2)" fill="none" x1="605" x2="605" y1="554" y2="552"/>
<line clip-path="url(#clipPath2)" fill="none" x1="615" x2="615" y1="22" y2="24"/>
<line clip-path="url(#clipPath2)" fill="none" x1="615" x2="615" y1="554" y2="552"/>
<line clip-path="url(#clipPath2)" fill="none" x1="625" x2="625" y1="22" y2="24"/>
<line clip-path="url(#clipPath2)" fill="none" x1="625" x2="625" y1="554" y2="552"/>
<line clip-path="url(#clipPath2)" fill="none" x1="636" x2="636" y1="22" y2="24"/>
<line clip-path="url(#clipPath2)" fill="none" x1="636" x2="636" y1="554" y2="552"/>
<line clip-path="url(#clipPath2)" fill="none" x1="646" x2="646" y1="20" y2="24"/>
<line clip-path="url(#clipPath2)" fill="none" x1="646" x2="646" y1="556" y2="552"/>
<text x="635" font-size="10" y="13" clip-path="url(#clipPath2)" stroke="none" xml:space="preserve">1200</text>
<text x="635" font-size="10" y="567" clip-path="url(#clipPath2)" stroke="none" xml:space="preserve">1200</text>
<line clip-path="url(#clipPath2)" fill="none" x1="656" x2="656" y1="22" y2="24"/>
<line clip-path="url(#clipPath2)" fill="none" x1="656" x2="656" y1="554" y2="552"/>
<line clip-path="url(#clipPath2)" fill="none" x1="666" x2="666" y1="22" y2="24"/>
<line clip-path="url(#clipPath2)" fill="none" x1="666" x2="666" y1="554" y2="552"/>
<line clip-path="url(#clipPath2)" fill="none" x1="677" x2="677" y1="22" y2="24"/>
<line clip-path="url(#clipPath2)" fill="none" x1="677" x2="677" y1="554" y2="552"/>
<line clip-path="url(#clipPath2)" fill="none" x1="687" x2="687" y1="22" y2="24"/>
<line clip-path="url(#clipPath2)" fill="none" x1="687" x2="687" y1="554" y2="552"/>
<line clip-path="url(#clipPath2)" fill="none" x1="697" x2="697" y1="20" y2="24"/>
<line clip-path="url(#clipPath2)" fill="none" x1="697" x2="697" y1="556" y2="552"/>
<text x="686" font-size="10" y="13" clip-path="url(#clipPath2)" stroke="none" xml:space="preserve">1300</text>
<text x="686" font-size="10" y="567" clip-path="url(#clipPath2)" stroke="none" xml:space="preserve">1300</text>
<line clip-path="url(#clipPath2)" fill="none" x1="708" x2="708" y1="22" y2="24"/>
<line clip-path="url(#clipPath2)" fill="none" x1="708" x2="708" y1="554" y2="552"/>
<line clip-path="url(#clipPath2)" fill="none" x1="718" x2="718" y1="22" y2="24"/>
<line clip-path="url(#clipPath2)" fill="none" x1="718" x2="718" y1="554" y2="552"/>
<line clip-path="url(#clipPath2)" fill="none" x1="728" x2="728" y1="22" y2="24"/>
<line clip-path="url(#clipPath2)" fill="none" x1="728" x2="728" y1="554" y2="552"/>
<line clip-path="url(#clipPath2)" fill="none" x1="739" x2="739" y1="22" y2="24"/>
<line clip-path="url(#clipPath2)" fill="none" x1="739" x2="739" y1="554" y2="552"/>
<line clip-path="url(#clipPath2)" fill="none" x1="749" x2="749" y1="20" y2="24"/>
<line clip-path="url(#clipPath2)" fill="none" x1="749" x2="749" y1="556" y2="552"/>
<text x="738" font-size="10" y="13" clip-path="url(#clipPath2)" stroke="none" xml:space="preserve">1400</text>
<text x="738" font-size="10" y="567" clip-path="url(#clipPath2)" stroke="none" xml:space="preserve">1400</text>
<line clip-path="url(#clipPath2)" fill="none" x1="759" x2="759" y1="22" y2="24"/>
<line clip-path="url(#clipPath2)" fill="none" x1="759" x2="759" y1="554" y2="552"/>
<line clip-path="url(#clipPath2)" fill="none" x1="770" x2="770" y1="22" y2="24"/>
<line clip-path="url(#clipPath2)" fill="none" x1="770" x2="770" y1="554" y2="552"/>
<line clip-path="url(#clipPath2)" fill="none" x1="780" x2="780" y1="22" y2="24"/>
<line clip-path="url(#clipPath2)" fill="none" x1="780" x2="780" y1="554" y2="552"/>
<line clip-path="url(#clipPath2)" fill="none" x1="790" x2="790" y1="22" y2="24"/>
<line clip-path="url(#clipPath2)" fill="none" x1="790" x2="790" y1="554" y2="552"/>
<line clip-path="url(#clipPath2)" fill="none" x1="800" x2="800" y1="20" y2="24"/>
<line clip-path="url(#clipPath2)" fill="none" x1="800" x2="800" y1="556" y2="552"/>
<text x="789" font-size="10" y="13" clip-path="url(#clipPath2)" stroke="none" xml:space="preserve">1500</text>
<text x="789" font-size="10" y="567" clip-path="url(#clipPath2)" stroke="none" xml:space="preserve">1500</text>
<line clip-path="url(#clipPath2)" fill="none" x1="811" x2="811" y1="22" y2="24"/>
<line clip-path="url(#clipPath2)" fill="none" x1="811" x2="811" y1="554" y2="552"/>
<line clip-path="url(#clipPath2)" fill="none" x1="821" x2="821" y1="22" y2="24"/>
<line clip-path="url(#clipPath2)" fill="none" x1="821" x2="821" y1="554" y2="552"/>
<line clip-path="url(#clipPath2)" fill="none" x1="831" x2="831" y1="22" y2="24"/>
<line clip-path="url(#clipPath2)" fill="none" x1="831" x2="831" y1="554" y2="552"/>
<line clip-path="url(#clipPath2)" fill="none" x1="842" x2="842" y1="22" y2="24"/>
<line clip-path="url(#clipPath2)" fill="none" x1="842" x2="842" y1="554" y2="552"/>
<line clip-path="url(#clipPath2)" fill="none" x1="852" x2="852" y1="20" y2="24"/>
<line clip-path="url(#clipPath2)" fill="none" x1="852" x2="852" y1="556" y2="552"/>
<text x="841" font-size="10" y="13" clip-path="url(#clipPath2)" stroke="none" xml:space="preserve">1600</text>
<text x="841" font-size="10" y="567" clip-path="url(#clipPath2)" stroke="none" xml:space="preserve">1600</text>
<line clip-path="url(#clipPath2)" fill="none" x1="862" x2="862" y1="22" y2="24"/>
<line clip-path="url(#clipPath2)" fill="none" x1="862" x2="862" y1="554" y2="552"/>
<line clip-path="url(#clipPath2)" fill="none" x1="873" x2="873" y1="22" y2="24"/>
<line clip-path="url(#clipPath2)" fill="none" x1="873" x2="873" y1="554" y2="552"/>
<line clip-path="url(#clipPath2)" fill="none" x1="883" x2="883" y1="22" y2="24"/>
<line clip-path="url(#clipPath2)" fill="none" x1="883" x2="883" y1="554" y2="552"/>
<line clip-path="url(#clipPath2)" fill="none" x1="893" x2="893" y1="22" y2="24"/>
<line clip-path="url(#clipPath2)" fill="none" x1="893" x2="893" y1="554" y2="552"/>
<line clip-path="url(#clipPath2)" fill="none" x1="903" x2="903" y1="20" y2="24"/>
<line clip-path="url(#clipPath2)" fill="none" x1="903" x2="903" y1="556" y2="552"/>
<text x="892" font-size="10" y="13" clip-path="url(#clipPath2)" stroke="none" xml:space="preserve">1700</text>
<text x="892" font-size="10" y="567" clip-path="url(#clipPath2)" stroke="none" xml:space="preserve">1700</text>
<line clip-path="url(#clipPath2)" fill="none" x1="914" x2="914" y1="22" y2="24"/>
<line clip-path="url(#clipPath2)" fill="none" x1="914" x2="914" y1="554" y2="552"/>
<line clip-path="url(#clipPath2)" fill="none" x1="924" x2="924" y1="22" y2="24"/>
<line clip-path="url(#clipPath2)" fill="none" x1="924" x2="924" y1="554" y2="552"/>
<line clip-path="url(#clipPath2)" fill="none" x1="934" x2="934" y1="22" y2="24"/>
<line clip-path="url(#clipPath2)" fill="none" x1="934" x2="934" y1="554" y2="552"/>
<line clip-path="url(#clipPath2)" fill="none" x1="945" x2="945" y1="22" y2="24"/>
<line clip-path="url(#clipPath2)" fill="none" x1="945" x2="945" y1="554" y2="552"/>
<line clip-path="url(#clipPath2)" fill="none" x1="955" x2="955" y1="20" y2="24"/>
<line clip-path="url(#clipPath2)" fill="none" x1="955" x2="955" y1="556" y2="552"/>
<text x="944" font-size="10" y="13" clip-path="url(#clipPath2)" stroke="none" xml:space="preserve">1800</text>
<text x="944" font-size="10" y="567" clip-path="url(#clipPath2)" stroke="none" xml:space="preserve">1800</text>
<line clip-path="url(#clipPath2)" fill="none" x1="965" x2="965" y1="22" y2="24"/>
<line clip-path="url(#clipPath2)" fill="none" x1="965" x2="965" y1="554" y2="552"/>
<line clip-path="url(#clipPath2)" fill="none" x1="976" x2="976" y1="22" y2="24"/>
<line clip-path="url(#clipPath2)" fill="none" x1="976" x2="976" y1="554" y2="552"/>
<line clip-path="url(#clipPath2)" fill="none" x1="986" x2="986" y1="22" y2="24"/>
<line clip-path="url(#clipPath2)" fill="none" x1="986" x2="986" y1="554" y2="552"/>
<line clip-path="url(#clipPath2)" fill="none" x1="996" x2="996" y1="22" y2="24"/>
<line clip-path="url(#clipPath2)" fill="none" x1="996" x2="996" y1="554" y2="552"/>
<line clip-path="url(#clipPath2)" fill="none" x1="1007" x2="1007" y1="20" y2="24"/>
<line clip-path="url(#clipPath2)" fill="none" x1="1007" x2="1007" y1="556" y2="552"/>
<text x="996" font-size="10" y="13" clip-path="url(#clipPath2)" stroke="none" xml:space="preserve">1900</text>
<text x="996" font-size="10" y="567" clip-path="url(#clipPath2)" stroke="none" xml:space="preserve">1900</text>
<line clip-path="url(#clipPath2)" fill="none" x1="1017" x2="1017" y1="22" y2="24"/>
<line clip-path="url(#clipPath2)" fill="none" x1="1017" x2="1017" y1="554" y2="552"/>
<line clip-path="url(#clipPath2)" fill="none" x1="1027" x2="1027" y1="22" y2="24"/>
<line clip-path="url(#clipPath2)" fill="none" x1="1027" x2="1027" y1="554" y2="552"/>
<line clip-path="url(#clipPath2)" fill="none" x1="1037" x2="1037" y1="22" y2="24"/>
<line clip-path="url(#clipPath2)" fill="none" x1="1037" x2="1037" y1="554" y2="552"/>
<line clip-path="url(#clipPath2)" fill="none" x1="1048" x2="1048" y1="22" y2="24"/>
<line clip-path="url(#clipPath2)" fill="none" x1="1048" x2="1048" y1="554" y2="552"/>
<line clip-path="url(#clipPath2)" fill="none" x1="1058" x2="1058" y1="20" y2="24"/>
<line clip-path="url(#clipPath2)" fill="none" x1="1058" x2="1058" y1="556" y2="552"/>
<text x="1047" font-size="10" y="13" clip-path="url(#clipPath2)" stroke="none" xml:space="preserve">2000</text>
<text x="1047" font-size="10" y="567" clip-path="url(#clipPath2)" stroke="none" xml:space="preserve">2000</text>
<line clip-path="url(#clipPath2)" fill="none" x1="1068" x2="1068" y1="22" y2="24"/>
<line clip-path="url(#clipPath2)" fill="none" x1="1068" x2="1068" y1="554" y2="552"/>
<line clip-path="url(#clipPath2)" fill="none" x1="1079" x2="1079" y1="22" y2="24"/>
<line clip-path="url(#clipPath2)" fill="none" x1="1079" x2="1079" y1="554" y2="552"/>
<line clip-path="url(#clipPath2)" fill="none" x1="1089" x2="1089" y1="22" y2="24"/>
<line clip-path="url(#clipPath2)" fill="none" x1="1089" x2="1089" y1="554" y2="552"/>
<line clip-path="url(#clipPath2)" fill="none" x1="1099" x2="1099" y1="22" y2="24"/>
<line clip-path="url(#clipPath2)" fill="none" x1="1099" x2="1099" y1="554" y2="552"/>
<line clip-path="url(#clipPath2)" fill="none" x1="1110" x2="1110" y1="20" y2="24"/>
<line clip-path="url(#clipPath2)" fill="none" x1="1110" x2="1110" y1="556" y2="552"/>
<text x="1099" font-size="10" y="13" clip-path="url(#clipPath2)" stroke="none" xml:space="preserve">2100</text>
<text x="1099" font-size="10" y="567" clip-path="url(#clipPath2)" stroke="none" xml:space="preserve">2100</text>
<line clip-path="url(#clipPath2)" fill="none" x1="1120" x2="1120" y1="22" y2="24"/>
<line clip-path="url(#clipPath2)" fill="none" x1="1120" x2="1120" y1="554" y2="552"/>
<line clip-path="url(#clipPath2)" fill="none" x1="1130" x2="1130" y1="22" y2="24"/>
<line clip-path="url(#clipPath2)" fill="none" x1="1130" x2="1130" y1="554" y2="552"/>
<line clip-path="url(#clipPath2)" fill="none" x1="1141" x2="1141" y1="22" y2="24"/>
<line clip-path="url(#clipPath2)" fill="none" x1="1141" x2="1141" y1="554" y2="552"/>
<line clip-path="url(#clipPath2)" fill="none" x1="1151" x2="1151" y1="22" y2="24"/>
<line clip-path="url(#clipPath2)" fill="none" x1="1151" x2="1151" y1="554" y2="552"/>
<line clip-path="url(#clipPath2)" fill="none" x1="1161" x2="1161" y1="20" y2="24"/>
<line clip-path="url(#clipPath2)" fill="none" x1="1161" x2="1161" y1="556" y2="552"/>
<text x="1150" font-size="10" y="13" clip-path="url(#clipPath2)" stroke="none" xml:space="preserve">2200</text>
<text x="1150" font-size="10" y="567" clip-path="url(#clipPath2)" stroke="none" xml:space="preserve">2200</text>
<line clip-path="url(#clipPath2)" fill="none" x1="1171" x2="1171" y1="22" y2="24"/>
<line clip-path="url(#clipPath2)" fill="none" x1="1171" x2="1171" y1="554" y2="552"/>
<line clip-path="url(#clipPath2)" fill="none" x1="1182" x2="1182" y1="22" y2="24"/>
<line clip-path="url(#clipPath2)" fill="none" x1="1182" x2="1182" y1="554" y2="552"/>
<line clip-path="url(#clipPath2)" fill="none" x1="1192" x2="1192" y1="22" y2="24"/>
<line clip-path="url(#clipPath2)" fill="none" x1="1192" x2="1192" y1="554" y2="552"/>
<line clip-path="url(#clipPath2)" fill="none" x1="1202" x2="1202" y1="22" y2="24"/>
<line clip-path="url(#clipPath2)" fill="none" x1="1202" x2="1202" y1="554" y2="552"/>
<line clip-path="url(#clipPath2)" fill="none" x1="1213" x2="1213" y1="20" y2="24"/>
<line clip-path="url(#clipPath2)" fill="none" x1="1213" x2="1213" y1="556" y2="552"/>
<text x="1202" font-size="10" y="13" clip-path="url(#clipPath2)" stroke="none" xml:space="preserve">2300</text>
<text x="1202" font-size="10" y="567" clip-path="url(#clipPath2)" stroke="none" xml:space="preserve">2300</text>
<line clip-path="url(#clipPath2)" fill="none" x1="1223" x2="1223" y1="22" y2="24"/>
<line clip-path="url(#clipPath2)" fill="none" x1="1223" x2="1223" y1="554" y2="552"/>
<line clip-path="url(#clipPath2)" fill="none" x1="1233" x2="1233" y1="22" y2="24"/>
<line clip-path="url(#clipPath2)" fill="none" x1="1233" x2="1233" y1="554" y2="552"/>
<line clip-path="url(#clipPath2)" fill="none" x1="1244" x2="1244" y1="22" y2="24"/>
<line clip-path="url(#clipPath2)" fill="none" x1="1244" x2="1244" y1="554" y2="552"/>
<line clip-path="url(#clipPath2)" fill="none" x1="1254" x2="1254" y1="22" y2="24"/>
<line clip-path="url(#clipPath2)" fill="none" x1="1254" x2="1254" y1="554" y2="552"/>
<line clip-path="url(#clipPath2)" fill="none" x1="1264" x2="1264" y1="20" y2="24"/>
<line clip-path="url(#clipPath2)" fill="none" x1="1264" x2="1264" y1="556" y2="552"/>
<text x="1253" font-size="10" y="13" clip-path="url(#clipPath2)" stroke="none" xml:space="preserve">2400</text>
<text x="1253" font-size="10" y="567" clip-path="url(#clipPath2)" stroke="none" xml:space="preserve">2400</text>
<line clip-path="url(#clipPath2)" fill="none" x1="26" x2="26" y1="26" y2="550"/>
<line clip-path="url(#clipPath2)" fill="none" x1="1267" x2="1267" y1="26" y2="550"/>
<line clip-path="url(#clipPath2)" fill="none" x1="22" x2="26" y1="550" y2="550"/>
<line clip-path="url(#clipPath2)" fill="none" x1="1271" x2="1267" y1="550" y2="550"/>
<text x="15" font-size="10" y="552" clip-path="url(#clipPath2)" stroke="none" xml:space="preserve">0</text>
<text x="1274" font-size="10" y="552" clip-path="url(#clipPath2)" stroke="none" xml:space="preserve">0</text>
<line clip-path="url(#clipPath2)" fill="none" x1="24" x2="26" y1="506" y2="506"/>
<line clip-path="url(#clipPath2)" fill="none" x1="1269" x2="1267" y1="506" y2="506"/>
<line clip-path="url(#clipPath2)" fill="none" x1="22" x2="26" y1="462" y2="462"/>
<line clip-path="url(#clipPath2)" fill="none" x1="1271" x2="1267" y1="462" y2="462"/>
<text x="15" font-size="10" y="464" clip-path="url(#clipPath2)" stroke="none" xml:space="preserve">2</text>
<text x="1274" font-size="10" y="464" clip-path="url(#clipPath2)" stroke="none" xml:space="preserve">2</text>
<line clip-path="url(#clipPath2)" fill="none" x1="24" x2="26" y1="419" y2="419"/>
<line clip-path="url(#clipPath2)" fill="none" x1="1269" x2="1267" y1="419" y2="419"/>
<line clip-path="url(#clipPath2)" fill="none" x1="22" x2="26" y1="375" y2="375"/>
<line clip-path="url(#clipPath2)" fill="none" x1="1271" x2="1267" y1="375" y2="375"/>
<text x="15" font-size="10" y="377" clip-path="url(#clipPath2)" stroke="none" xml:space="preserve">4</text>
<text x="1274" font-size="10" y="377" clip-path="url(#clipPath2)" stroke="none" xml:space="preserve">4</text>
<line clip-path="url(#clipPath2)" fill="none" x1="24" x2="26" y1="331" y2="331"/>
<line clip-path="url(#clipPath2)" fill="none" x1="1269" x2="1267" y1="331" y2="331"/>
<line clip-path="url(#clipPath2)" fill="none" x1="22" x2="26" y1="288" y2="288"/>
<line clip-path="url(#clipPath2)" fill="none" x1="1271" x2="1267" y1="288" y2="288"/>
<text x="15" font-size="10" y="290" clip-path="url(#clipPath2)" stroke="none" xml:space="preserve">6</text>
<text x="1274" font-size="10" y="290" clip-path="url(#clipPath2)" stroke="none" xml:space="preserve">6</text>
<line clip-path="url(#clipPath2)" fill="none" x1="24" x2="26" y1="244" y2="244"/>
<line clip-path="url(#clipPath2)" fill="none" x1="1269" x2="1267" y1="244" y2="244"/>
<line clip-path="url(#clipPath2)" fill="none" x1="22" x2="26" y1="200" y2="200"/>
<line clip-path="url(#clipPath2)" fill="none" x1="1271" x2="1267" y1="200" y2="200"/>
<text x="15" font-size="10" y="202" clip-path="url(#clipPath2)" stroke="none" xml:space="preserve">8</text>
<text x="1274" font-size="10" y="202" clip-path="url(#clipPath2)" stroke="none" xml:space="preserve">8</text>
<line clip-path="url(#clipPath2)" fill="none" x1="24" x2="26" y1="157" y2="157"/>
<line clip-path="url(#clipPath2)" fill="none" x1="1269" x2="1267" y1="157" y2="157"/>
<line clip-path="url(#clipPath2)" fill="none" x1="22" x2="26" y1="113" y2="113"/>
<line clip-path="url(#clipPath2)" fill="none" x1="1271" x2="1267" y1="113" y2="113"/>
<text x="9" font-size="10" y="115" clip-path="url(#clipPath2)" stroke="none" xml:space="preserve">10</text>
<text x="1274" font-size="10" y="115" clip-path="url(#clipPath2)" stroke="none" xml:space="preserve">10</text>
<line clip-path="url(#clipPath2)" fill="none" x1="24" x2="26" y1="69" y2="69"/>
<line clip-path="url(#clipPath2)" fill="none" x1="1269" x2="1267" y1="69" y2="69"/>
<line clip-path="url(#clipPath2)" fill="none" x1="22" x2="26" y1="26" y2="26"/>
<line clip-path="url(#clipPath2)" fill="none" x1="1271" x2="1267" y1="26" y2="26"/>
<text x="9" font-size="10" y="28" clip-path="url(#clipPath2)" stroke="none" xml:space="preserve">12</text>
<text x="1274" font-size="10" y="28" clip-path="url(#clipPath2)" stroke="none" xml:space="preserve">12</text>
</g>
</g>
</svg>
