<?xml version="1.0" encoding="UTF-8"?><svg xmlns="http://www.w3.org/2000/svg" xmlns:xlink="http://www.w3.org/1999/xlink" stroke-dasharray="none" shape-rendering="auto" font-family="'Dialog'" width="1005" text-rendering="auto" fill-opacity="1" contentScriptType="text/ecmascript" color-interpolation="auto" color-rendering="auto" preserveAspectRatio="xMidYMid meet" font-size="12" fill="black" stroke="black" image-rendering="auto" stroke-miterlimit="10" zoomAndPan="magnify" version="1.0" stroke-linecap="square" stroke-linejoin="miter" contentStyleType="text/css" font-style="normal" height="576" stroke-width="1" stroke-dashoffset="0" font-weight="normal" stroke-opacity="1">
<!--Generated by the Batik Graphics2D SVG Generator-->
<defs id="genericDefs"/>
<g>
<defs id="defs1">
<clipPath clipPathUnits="userSpaceOnUse" id="clipPath1">
<path d="M34 25 L971 25 L971 551 L34 551 L34 25 Z"/>
</clipPath>
<clipPath clipPathUnits="userSpaceOnUse" id="clipPath2">
<path d="M-1 -1 L1006 -1 L1006 577 L-1 577 L-1 -1 Z"/>
</clipPath>
</defs>
<g fill="white" text-rendering="geometricPrecision" font-family="'Segoe UI'" stroke-linejoin="round" stroke="white" stroke-width="0" stroke-miterlimit="0">
<rect x="35" y="26" clip-path="url(#clipPath1)" width="935" height="524" stroke="none"/>
</g>
<g stroke-linecap="butt" fill="rgb(204,204,204)" text-rendering="geometricPrecision" font-family="'Segoe UI'" stroke-dasharray="3,3" stroke="rgb(204,204,204)">
<line clip-path="url(#clipPath1)" fill="none" x1="35" x2="35" y1="26" y2="550"/>
<line clip-path="url(#clipPath1)" fill="none" x1="99" x2="99" y1="26" y2="550"/>
<line clip-path="url(#clipPath1)" fill="none" x1="164" x2="164" y1="26" y2="550"/>
<line clip-path="url(#clipPath1)" fill="none" x1="228" x2="228" y1="26" y2="550"/>
<line clip-path="url(#clipPath1)" fill="none" x1="293" x2="293" y1="26" y2="550"/>
<line clip-path="url(#clipPath1)" fill="none" x1="358" x2="358" y1="26" y2="550"/>
<line clip-path="url(#clipPath1)" fill="none" x1="422" x2="422" y1="26" y2="550"/>
<line clip-path="url(#clipPath1)" fill="none" x1="487" x2="487" y1="26" y2="550"/>
<line clip-path="url(#clipPath1)" fill="none" x1="552" x2="552" y1="26" y2="550"/>
<line clip-path="url(#clipPath1)" fill="none" x1="616" x2="616" y1="26" y2="550"/>
<line clip-path="url(#clipPath1)" fill="none" x1="681" x2="681" y1="26" y2="550"/>
<line clip-path="url(#clipPath1)" fill="none" x1="746" x2="746" y1="26" y2="550"/>
<line clip-path="url(#clipPath1)" fill="none" x1="810" x2="810" y1="26" y2="550"/>
<line clip-path="url(#clipPath1)" fill="none" x1="875" x2="875" y1="26" y2="550"/>
<line clip-path="url(#clipPath1)" fill="none" x1="940" x2="940" y1="26" y2="550"/>
<line clip-path="url(#clipPath1)" fill="none" x1="35" x2="970" y1="550" y2="550"/>
<line clip-path="url(#clipPath1)" fill="none" x1="35" x2="970" y1="475" y2="475"/>
<line clip-path="url(#clipPath1)" fill="none" x1="35" x2="970" y1="400" y2="400"/>
<line clip-path="url(#clipPath1)" fill="none" x1="35" x2="970" y1="325" y2="325"/>
<line clip-path="url(#clipPath1)" fill="none" x1="35" x2="970" y1="250" y2="250"/>
<line clip-path="url(#clipPath1)" fill="none" x1="35" x2="970" y1="175" y2="175"/>
<line clip-path="url(#clipPath1)" fill="none" x1="35" x2="970" y1="100" y2="100"/>
<line clip-path="url(#clipPath1)" fill="none" x1="35" x2="970" y1="26" y2="26"/>
<rect x="62" y="233" clip-path="url(#clipPath1)" fill="rgb(0,0,139)" width="5" height="5" stroke="none"/>
<line clip-path="url(#clipPath1)" fill="none" x1="64" x2="86" y1="235" y2="459" stroke-dasharray="none" stroke="rgb(0,0,139)"/>
<rect x="84" y="457" clip-path="url(#clipPath1)" fill="rgb(0,0,139)" width="5" stroke-dasharray="none" height="5" stroke="none"/>
<line clip-path="url(#clipPath1)" fill="none" x1="86" x2="197" y1="459" y2="235" stroke-dasharray="none" stroke="rgb(0,0,139)"/>
<rect x="195" y="233" clip-path="url(#clipPath1)" fill="rgb(0,0,139)" width="5" stroke-dasharray="none" height="5" stroke="none"/>
<line clip-path="url(#clipPath1)" fill="none" x1="197" x2="313" y1="235" y2="549" stroke-dasharray="none" stroke="rgb(0,0,139)"/>
<rect x="311" y="547" clip-path="url(#clipPath1)" fill="rgb(0,0,139)" width="5" stroke-dasharray="none" height="5" stroke="none"/>
<line clip-path="url(#clipPath1)" fill="none" x1="313" x2="545" y1="549" y2="459" stroke-dasharray="none" stroke="rgb(0,0,139)"/>
<rect x="543" y="457" clip-path="url(#clipPath1)" fill="rgb(0,0,139)" width="5" stroke-dasharray="none" height="5" stroke="none"/>
<line clip-path="url(#clipPath1)" fill="none" x1="545" x2="958" y1="459" y2="78" stroke-dasharray="none" stroke="rgb(0,0,139)"/>
<rect x="956" y="76" clip-path="url(#clipPath1)" fill="rgb(0,0,139)" width="5" stroke-dasharray="none" height="5" stroke="none"/>
<rect x="35" y="26" clip-path="url(#clipPath2)" fill="none" width="935" stroke-dasharray="none" height="524" stroke="black"/>
</g>
<g text-rendering="geometricPrecision" font-size="13" font-family="'Arial'" stroke-linecap="butt">
<line clip-path="url(#clipPath2)" fill="none" x1="35" x2="970" y1="24" y2="24"/>
<line clip-path="url(#clipPath2)" fill="none" x1="35" x2="970" y1="552" y2="552"/>
<line clip-path="url(#clipPath2)" fill="none" x1="35" x2="35" y1="20" y2="24"/>
<line clip-path="url(#clipPath2)" fill="none" x1="35" x2="35" y1="556" y2="552"/>
<text x="33" font-size="10" y="13" clip-path="url(#clipPath2)" stroke="none" xml:space="preserve">0</text>
<text x="33" font-size="10" y="567" clip-path="url(#clipPath2)" stroke="none" xml:space="preserve">0</text>
<line clip-path="url(#clipPath2)" fill="none" x1="67" x2="67" y1="22" y2="24"/>
<line clip-path="url(#clipPath2)" fill="none" x1="67" x2="67" y1="554" y2="552"/>
<line clip-path="url(#clipPath2)" fill="none" x1="99" x2="99" y1="20" y2="24"/>
<line clip-path="url(#clipPath2)" fill="none" x1="99" x2="99" y1="556" y2="552"/>
<text x="91" font-size="10" y="13" clip-path="url(#clipPath2)" stroke="none" xml:space="preserve">200</text>
<text x="91" font-size="10" y="567" clip-path="url(#clipPath2)" stroke="none" xml:space="preserve">200</text>
<line clip-path="url(#clipPath2)" fill="none" x1="131" x2="131" y1="22" y2="24"/>
<line clip-path="url(#clipPath2)" fill="none" x1="131" x2="131" y1="554" y2="552"/>
<line clip-path="url(#clipPath2)" fill="none" x1="164" x2="164" y1="20" y2="24"/>
<line clip-path="url(#clipPath2)" fill="none" x1="164" x2="164" y1="556" y2="552"/>
<text x="156" font-size="10" y="13" clip-path="url(#clipPath2)" stroke="none" xml:space="preserve">400</text>
<text x="156" font-size="10" y="567" clip-path="url(#clipPath2)" stroke="none" xml:space="preserve">400</text>
<line clip-path="url(#clipPath2)" fill="none" x1="196" x2="196" y1="22" y2="24"/>
<line clip-path="url(#clipPath2)" fill="none" x1="196" x2="196" y1="554" y2="552"/>
<line clip-path="url(#clipPath2)" fill="none" x1="228" x2="228" y1="20" y2="24"/>
<line clip-path="url(#clipPath2)" fill="none" x1="228" x2="228" y1="556" y2="552"/>
<text x="220" font-size="10" y="13" clip-path="url(#clipPath2)" stroke="none" xml:space="preserve">600</text>
<text x="220" font-size="10" y="567" clip-path="url(#clipPath2)" stroke="none" xml:space="preserve">600</text>
<line clip-path="url(#clipPath2)" fill="none" x1="261" x2="261" y1="22" y2="24"/>
<line clip-path="url(#clipPath2)" fill="none" x1="261" x2="261" y1="554" y2="552"/>
<line clip-path="url(#clipPath2)" fill="none" x1="293" x2="293" y1="20" y2="24"/>
<line clip-path="url(#clipPath2)" fill="none" x1="293" x2="293" y1="556" y2="552"/>
<text x="285" font-size="10" y="13" clip-path="url(#clipPath2)" stroke="none" xml:space="preserve">800</text>
<text x="285" font-size="10" y="567" clip-path="url(#clipPath2)" stroke="none" xml:space="preserve">800</text>
<line clip-path="url(#clipPath2)" fill="none" x1="325" x2="325" y1="22" y2="24"/>
<line clip-path="url(#clipPath2)" fill="none" x1="325" x2="325" y1="554" y2="552"/>
<line clip-path="url(#clipPath2)" fill="none" x1="358" x2="358" y1="20" y2="24"/>
<line clip-path="url(#clipPath2)" fill="none" x1="358" x2="358" y1="556" y2="552"/>
<text x="347" font-size="10" y="13" clip-path="url(#clipPath2)" stroke="none" xml:space="preserve">1000</text>
<text x="347" font-size="10" y="567" clip-path="url(#clipPath2)" stroke="none" xml:space="preserve">1000</text>
<line clip-path="url(#clipPath2)" fill="none" x1="390" x2="390" y1="22" y2="24"/>
<line clip-path="url(#clipPath2)" fill="none" x1="390" x2="390" y1="554" y2="552"/>
<line clip-path="url(#clipPath2)" fill="none" x1="422" x2="422" y1="20" y2="24"/>
<line clip-path="url(#clipPath2)" fill="none" x1="422" x2="422" y1="556" y2="552"/>
<text x="411" font-size="10" y="13" clip-path="url(#clipPath2)" stroke="none" xml:space="preserve">1200</text>
<text x="411" font-size="10" y="567" clip-path="url(#clipPath2)" stroke="none" xml:space="preserve">1200</text>
<line clip-path="url(#clipPath2)" fill="none" x1="455" x2="455" y1="22" y2="24"/>
<line clip-path="url(#clipPath2)" fill="none" x1="455" x2="455" y1="554" y2="552"/>
<line clip-path="url(#clipPath2)" fill="none" x1="487" x2="487" y1="20" y2="24"/>
<line clip-path="url(#clipPath2)" fill="none" x1="487" x2="487" y1="556" y2="552"/>
<text x="476" font-size="10" y="13" clip-path="url(#clipPath2)" stroke="none" xml:space="preserve">1400</text>
<text x="476" font-size="10" y="567" clip-path="url(#clipPath2)" stroke="none" xml:space="preserve">1400</text>
<line clip-path="url(#clipPath2)" fill="none" x1="519" x2="519" y1="22" y2="24"/>
<line clip-path="url(#clipPath2)" fill="none" x1="519" x2="519" y1="554" y2="552"/>
<line clip-path="url(#clipPath2)" fill="none" x1="552" x2="552" y1="20" y2="24"/>
<line clip-path="url(#clipPath2)" fill="none" x1="552" x2="552" y1="556" y2="552"/>
<text x="541" font-size="10" y="13" clip-path="url(#clipPath2)" stroke="none" xml:space="preserve">1600</text>
<text x="541" font-size="10" y="567" clip-path="url(#clipPath2)" stroke="none" xml:space="preserve">1600</text>
<line clip-path="url(#clipPath2)" fill="none" x1="584" x2="584" y1="22" y2="24"/>
<line clip-path="url(#clipPath2)" fill="none" x1="584" x2="584" y1="554" y2="552"/>
<line clip-path="url(#clipPath2)" fill="none" x1="616" x2="616" y1="20" y2="24"/>
<line clip-path="url(#clipPath2)" fill="none" x1="616" x2="616" y1="556" y2="552"/>
<text x="605" font-size="10" y="13" clip-path="url(#clipPath2)" stroke="none" xml:space="preserve">1800</text>
<text x="605" font-size="10" y="567" clip-path="url(#clipPath2)" stroke="none" xml:space="preserve">1800</text>
<line clip-path="url(#clipPath2)" fill="none" x1="649" x2="649" y1="22" y2="24"/>
<line clip-path="url(#clipPath2)" fill="none" x1="649" x2="649" y1="554" y2="552"/>
<line clip-path="url(#clipPath2)" fill="none" x1="681" x2="681" y1="20" y2="24"/>
<line clip-path="url(#clipPath2)" fill="none" x1="681" x2="681" y1="556" y2="552"/>
<text x="670" font-size="10" y="13" clip-path="url(#clipPath2)" stroke="none" xml:space="preserve">2000</text>
<text x="670" font-size="10" y="567" clip-path="url(#clipPath2)" stroke="none" xml:space="preserve">2000</text>
<line clip-path="url(#clipPath2)" fill="none" x1="713" x2="713" y1="22" y2="24"/>
<line clip-path="url(#clipPath2)" fill="none" x1="713" x2="713" y1="554" y2="552"/>
<line clip-path="url(#clipPath2)" fill="none" x1="746" x2="746" y1="20" y2="24"/>
<line clip-path="url(#clipPath2)" fill="none" x1="746" x2="746" y1="556" y2="552"/>
<text x="735" font-size="10" y="13" clip-path="url(#clipPath2)" stroke="none" xml:space="preserve">2200</text>
<text x="735" font-size="10" y="567" clip-path="url(#clipPath2)" stroke="none" xml:space="preserve">2200</text>
<line clip-path="url(#clipPath2)" fill="none" x1="778" x2="778" y1="22" y2="24"/>
<line clip-path="url(#clipPath2)" fill="none" x1="778" x2="778" y1="554" y2="552"/>
<line clip-path="url(#clipPath2)" fill="none" x1="810" x2="810" y1="20" y2="24"/>
<line clip-path="url(#clipPath2)" fill="none" x1="810" x2="810" y1="556" y2="552"/>
<text x="799" font-size="10" y="13" clip-path="url(#clipPath2)" stroke="none" xml:space="preserve">2400</text>
<text x="799" font-size="10" y="567" clip-path="url(#clipPath2)" stroke="none" xml:space="preserve">2400</text>
<line clip-path="url(#clipPath2)" fill="none" x1="843" x2="843" y1="22" y2="24"/>
<line clip-path="url(#clipPath2)" fill="none" x1="843" x2="843" y1="554" y2="552"/>
<line clip-path="url(#clipPath2)" fill="none" x1="875" x2="875" y1="20" y2="24"/>
<line clip-path="url(#clipPath2)" fill="none" x1="875" x2="875" y1="556" y2="552"/>
<text x="864" font-size="10" y="13" clip-path="url(#clipPath2)" stroke="none" xml:space="preserve">2600</text>
<text x="864" font-size="10" y="567" clip-path="url(#clipPath2)" stroke="none" xml:space="preserve">2600</text>
<line clip-path="url(#clipPath2)" fill="none" x1="907" x2="907" y1="22" y2="24"/>
<line clip-path="url(#clipPath2)" fill="none" x1="907" x2="907" y1="554" y2="552"/>
<line clip-path="url(#clipPath2)" fill="none" x1="940" x2="940" y1="20" y2="24"/>
<line clip-path="url(#clipPath2)" fill="none" x1="940" x2="940" y1="556" y2="552"/>
<text x="929" font-size="10" y="13" clip-path="url(#clipPath2)" stroke="none" xml:space="preserve">2800</text>
<text x="929" font-size="10" y="567" clip-path="url(#clipPath2)" stroke="none" xml:space="preserve">2800</text>
<line clip-path="url(#clipPath2)" fill="none" x1="33" x2="33" y1="26" y2="550"/>
<line clip-path="url(#clipPath2)" fill="none" x1="972" x2="972" y1="26" y2="550"/>
<line clip-path="url(#clipPath2)" fill="none" x1="29" x2="33" y1="550" y2="550"/>
<line clip-path="url(#clipPath2)" fill="none" x1="976" x2="972" y1="550" y2="550"/>
<text x="22" font-size="10" y="552" clip-path="url(#clipPath2)" stroke="none" xml:space="preserve">0</text>
<text x="979" font-size="10" y="552" clip-path="url(#clipPath2)" stroke="none" xml:space="preserve">0</text>
<line clip-path="url(#clipPath2)" fill="none" x1="31" x2="33" y1="512" y2="512"/>
<line clip-path="url(#clipPath2)" fill="none" x1="974" x2="972" y1="512" y2="512"/>
<line clip-path="url(#clipPath2)" fill="none" x1="29" x2="33" y1="475" y2="475"/>
<line clip-path="url(#clipPath2)" fill="none" x1="976" x2="972" y1="475" y2="475"/>
<text x="16" font-size="10" y="477" clip-path="url(#clipPath2)" stroke="none" xml:space="preserve">20</text>
<text x="979" font-size="10" y="477" clip-path="url(#clipPath2)" stroke="none" xml:space="preserve">20</text>
<line clip-path="url(#clipPath2)" fill="none" x1="31" x2="33" y1="437" y2="437"/>
<line clip-path="url(#clipPath2)" fill="none" x1="974" x2="972" y1="437" y2="437"/>
<line clip-path="url(#clipPath2)" fill="none" x1="29" x2="33" y1="400" y2="400"/>
<line clip-path="url(#clipPath2)" fill="none" x1="976" x2="972" y1="400" y2="400"/>
<text x="16" font-size="10" y="402" clip-path="url(#clipPath2)" stroke="none" xml:space="preserve">40</text>
<text x="979" font-size="10" y="402" clip-path="url(#clipPath2)" stroke="none" xml:space="preserve">40</text>
<line clip-path="url(#clipPath2)" fill="none" x1="31" x2="33" y1="362" y2="362"/>
<line clip-path="url(#clipPath2)" fill="none" x1="974" x2="972" y1="362" y2="362"/>
<line clip-path="url(#clipPath2)" fill="none" x1="29" x2="33" y1="325" y2="325"/>
<line clip-path="url(#clipPath2)" fill="none" x1="976" x2="972" y1="325" y2="325"/>
<text x="16" font-size="10" y="327" clip-path="url(#clipPath2)" stroke="none" xml:space="preserve">60</text>
<text x="979" font-size="10" y="327" clip-path="url(#clipPath2)" stroke="none" xml:space="preserve">60</text>
<line clip-path="url(#clipPath2)" fill="none" x1="31" x2="33" y1="288" y2="288"/>
<line clip-path="url(#clipPath2)" fill="none" x1="974" x2="972" y1="288" y2="288"/>
<line clip-path="url(#clipPath2)" fill="none" x1="29" x2="33" y1="250" y2="250"/>
<line clip-path="url(#clipPath2)" fill="none" x1="976" x2="972" y1="250" y2="250"/>
<text x="16" font-size="10" y="252" clip-path="url(#clipPath2)" stroke="none" xml:space="preserve">80</text>
<text x="979" font-size="10" y="252" clip-path="url(#clipPath2)" stroke="none" xml:space="preserve">80</text>
<line clip-path="url(#clipPath2)" fill="none" x1="31" x2="33" y1="213" y2="213"/>
<line clip-path="url(#clipPath2)" fill="none" x1="974" x2="972" y1="213" y2="213"/>
<line clip-path="url(#clipPath2)" fill="none" x1="29" x2="33" y1="175" y2="175"/>
<line clip-path="url(#clipPath2)" fill="none" x1="976" x2="972" y1="175" y2="175"/>
<text x="10" font-size="10" y="177" clip-path="url(#clipPath2)" stroke="none" xml:space="preserve">100</text>
<text x="979" font-size="10" y="177" clip-path="url(#clipPath2)" stroke="none" xml:space="preserve">100</text>
<line clip-path="url(#clipPath2)" fill="none" x1="31" x2="33" y1="138" y2="138"/>
<line clip-path="url(#clipPath2)" fill="none" x1="974" x2="972" y1="138" y2="138"/>
<line clip-path="url(#clipPath2)" fill="none" x1="29" x2="33" y1="100" y2="100"/>
<line clip-path="url(#clipPath2)" fill="none" x1="976" x2="972" y1="100" y2="100"/>
<text x="10" font-size="10" y="102" clip-path="url(#clipPath2)" stroke="none" xml:space="preserve">120</text>
<text x="979" font-size="10" y="102" clip-path="url(#clipPath2)" stroke="none" xml:space="preserve">120</text>
<line clip-path="url(#clipPath2)" fill="none" x1="31" x2="33" y1="63" y2="63"/>
<line clip-path="url(#clipPath2)" fill="none" x1="974" x2="972" y1="63" y2="63"/>
<line clip-path="url(#clipPath2)" fill="none" x1="29" x2="33" y1="26" y2="26"/>
<line clip-path="url(#clipPath2)" fill="none" x1="976" x2="972" y1="26" y2="26"/>
<text x="10" font-size="10" y="28" clip-path="url(#clipPath2)" stroke="none" xml:space="preserve">140</text>
<text x="979" font-size="10" y="28" clip-path="url(#clipPath2)" stroke="none" xml:space="preserve">140</text>
</g>
</g>
</svg>
