<?xml version="1.0" encoding="UTF-8"?><svg xmlns="http://www.w3.org/2000/svg" xmlns:xlink="http://www.w3.org/1999/xlink" stroke-dasharray="none" shape-rendering="auto" font-family="'Dialog'" width="1082" text-rendering="auto" fill-opacity="1" contentScriptType="text/ecmascript" color-interpolation="auto" color-rendering="auto" preserveAspectRatio="xMidYMid meet" font-size="12" fill="black" stroke="black" image-rendering="auto" stroke-miterlimit="10" zoomAndPan="magnify" version="1.0" stroke-linecap="square" stroke-linejoin="miter" contentStyleType="text/css" font-style="normal" height="580" stroke-width="1" stroke-dashoffset="0" font-weight="normal" stroke-opacity="1">
<!--Generated by the Batik Graphics2D SVG Generator-->
<defs id="genericDefs"/>
<g>
<defs id="defs1">
<clipPath clipPathUnits="userSpaceOnUse" id="clipPath1">
<path d="M34 25 L1048 25 L1048 555 L34 555 L34 25 Z"/>
</clipPath>
<clipPath clipPathUnits="userSpaceOnUse" id="clipPath2">
<path d="M-1 -1 L1083 -1 L1083 581 L-1 581 L-1 -1 Z"/>
</clipPath>
</defs>
<g fill="white" text-rendering="geometricPrecision" font-family="'Segoe UI'" stroke-linejoin="round" stroke="white" stroke-width="0" stroke-miterlimit="0">
<rect x="35" y="26" clip-path="url(#clipPath1)" width="1012" height="528" stroke="none"/>
</g>
<g stroke-linecap="butt" fill="rgb(204,204,204)" text-rendering="geometricPrecision" font-family="'Segoe UI'" stroke-dasharray="3,3" stroke="rgb(204,204,204)">
<line clip-path="url(#clipPath1)" fill="none" x1="35" x2="35" y1="26" y2="554"/>
<line clip-path="url(#clipPath1)" fill="none" x1="104" x2="104" y1="26" y2="554"/>
<line clip-path="url(#clipPath1)" fill="none" x1="174" x2="174" y1="26" y2="554"/>
<line clip-path="url(#clipPath1)" fill="none" x1="244" x2="244" y1="26" y2="554"/>
<line clip-path="url(#clipPath1)" fill="none" x1="314" x2="314" y1="26" y2="554"/>
<line clip-path="url(#clipPath1)" fill="none" x1="384" x2="384" y1="26" y2="554"/>
<line clip-path="url(#clipPath1)" fill="none" x1="454" x2="454" y1="26" y2="554"/>
<line clip-path="url(#clipPath1)" fill="none" x1="524" x2="524" y1="26" y2="554"/>
<line clip-path="url(#clipPath1)" fill="none" x1="594" x2="594" y1="26" y2="554"/>
<line clip-path="url(#clipPath1)" fill="none" x1="664" x2="664" y1="26" y2="554"/>
<line clip-path="url(#clipPath1)" fill="none" x1="734" x2="734" y1="26" y2="554"/>
<line clip-path="url(#clipPath1)" fill="none" x1="804" x2="804" y1="26" y2="554"/>
<line clip-path="url(#clipPath1)" fill="none" x1="874" x2="874" y1="26" y2="554"/>
<line clip-path="url(#clipPath1)" fill="none" x1="944" x2="944" y1="26" y2="554"/>
<line clip-path="url(#clipPath1)" fill="none" x1="1014" x2="1014" y1="26" y2="554"/>
<line clip-path="url(#clipPath1)" fill="none" x1="35" x2="1047" y1="554" y2="554"/>
<line clip-path="url(#clipPath1)" fill="none" x1="35" x2="1047" y1="478" y2="478"/>
<line clip-path="url(#clipPath1)" fill="none" x1="35" x2="1047" y1="403" y2="403"/>
<line clip-path="url(#clipPath1)" fill="none" x1="35" x2="1047" y1="327" y2="327"/>
<line clip-path="url(#clipPath1)" fill="none" x1="35" x2="1047" y1="252" y2="252"/>
<line clip-path="url(#clipPath1)" fill="none" x1="35" x2="1047" y1="176" y2="176"/>
<line clip-path="url(#clipPath1)" fill="none" x1="35" x2="1047" y1="101" y2="101"/>
<line clip-path="url(#clipPath1)" fill="none" x1="35" x2="1047" y1="26" y2="26"/>
<rect x="64" y="234" clip-path="url(#clipPath1)" fill="rgb(0,0,139)" width="5" height="5" stroke="none"/>
<line clip-path="url(#clipPath1)" fill="none" x1="66" x2="90" y1="236" y2="463" stroke-dasharray="none" stroke="rgb(0,0,139)"/>
<rect x="88" y="461" clip-path="url(#clipPath1)" fill="rgb(0,0,139)" width="5" stroke-dasharray="none" height="5" stroke="none"/>
<line clip-path="url(#clipPath1)" fill="none" x1="90" x2="210" y1="463" y2="236" stroke-dasharray="none" stroke="rgb(0,0,139)"/>
<rect x="208" y="234" clip-path="url(#clipPath1)" fill="rgb(0,0,139)" width="5" stroke-dasharray="none" height="5" stroke="none"/>
<line clip-path="url(#clipPath1)" fill="none" x1="210" x2="336" y1="236" y2="553" stroke-dasharray="none" stroke="rgb(0,0,139)"/>
<rect x="334" y="551" clip-path="url(#clipPath1)" fill="rgb(0,0,139)" width="5" stroke-dasharray="none" height="5" stroke="none"/>
<line clip-path="url(#clipPath1)" fill="none" x1="336" x2="588" y1="553" y2="463" stroke-dasharray="none" stroke="rgb(0,0,139)"/>
<rect x="586" y="461" clip-path="url(#clipPath1)" fill="rgb(0,0,139)" width="5" stroke-dasharray="none" height="5" stroke="none"/>
<line clip-path="url(#clipPath1)" fill="none" x1="588" x2="1034" y1="463" y2="78" stroke-dasharray="none" stroke="rgb(0,0,139)"/>
<rect x="1032" y="76" clip-path="url(#clipPath1)" fill="rgb(0,0,139)" width="5" stroke-dasharray="none" height="5" stroke="none"/>
<rect x="35" y="26" clip-path="url(#clipPath2)" fill="none" width="1012" stroke-dasharray="none" height="528" stroke="black"/>
</g>
<g text-rendering="geometricPrecision" font-size="13" font-family="'Arial'" stroke-linecap="butt">
<line clip-path="url(#clipPath2)" fill="none" x1="35" x2="1047" y1="24" y2="24"/>
<line clip-path="url(#clipPath2)" fill="none" x1="35" x2="1047" y1="556" y2="556"/>
<line clip-path="url(#clipPath2)" fill="none" x1="35" x2="35" y1="20" y2="24"/>
<line clip-path="url(#clipPath2)" fill="none" x1="35" x2="35" y1="560" y2="556"/>
<text x="33" font-size="10" y="13" clip-path="url(#clipPath2)" stroke="none" xml:space="preserve">0</text>
<text x="33" font-size="10" y="571" clip-path="url(#clipPath2)" stroke="none" xml:space="preserve">0</text>
<line clip-path="url(#clipPath2)" fill="none" x1="69" x2="69" y1="22" y2="24"/>
<line clip-path="url(#clipPath2)" fill="none" x1="69" x2="69" y1="558" y2="556"/>
<line clip-path="url(#clipPath2)" fill="none" x1="104" x2="104" y1="20" y2="24"/>
<line clip-path="url(#clipPath2)" fill="none" x1="104" x2="104" y1="560" y2="556"/>
<text x="96" font-size="10" y="13" clip-path="url(#clipPath2)" stroke="none" xml:space="preserve">200</text>
<text x="96" font-size="10" y="571" clip-path="url(#clipPath2)" stroke="none" xml:space="preserve">200</text>
<line clip-path="url(#clipPath2)" fill="none" x1="139" x2="139" y1="22" y2="24"/>
<line clip-path="url(#clipPath2)" fill="none" x1="139" x2="139" y1="558" y2="556"/>
<line clip-path="url(#clipPath2)" fill="none" x1="174" x2="174" y1="20" y2="24"/>
<line clip-path="url(#clipPath2)" fill="none" x1="174" x2="174" y1="560" y2="556"/>
<text x="166" font-size="10" y="13" clip-path="url(#clipPath2)" stroke="none" xml:space="preserve">400</text>
<text x="166" font-size="10" y="571" clip-path="url(#clipPath2)" stroke="none" xml:space="preserve">400</text>
<line clip-path="url(#clipPath2)" fill="none" x1="209" x2="209" y1="22" y2="24"/>
<line clip-path="url(#clipPath2)" fill="none" x1="209" x2="209" y1="558" y2="556"/>
<line clip-path="url(#clipPath2)" fill="none" x1="244" x2="244" y1="20" y2="24"/>
<line clip-path="url(#clipPath2)" fill="none" x1="244" x2="244" y1="560" y2="556"/>
<text x="236" font-size="10" y="13" clip-path="url(#clipPath2)" stroke="none" xml:space="preserve">600</text>
<text x="236" font-size="10" y="571" clip-path="url(#clipPath2)" stroke="none" xml:space="preserve">600</text>
<line clip-path="url(#clipPath2)" fill="none" x1="279" x2="279" y1="22" y2="24"/>
<line clip-path="url(#clipPath2)" fill="none" x1="279" x2="279" y1="558" y2="556"/>
<line clip-path="url(#clipPath2)" fill="none" x1="314" x2="314" y1="20" y2="24"/>
<line clip-path="url(#clipPath2)" fill="none" x1="314" x2="314" y1="560" y2="556"/>
<text x="306" font-size="10" y="13" clip-path="url(#clipPath2)" stroke="none" xml:space="preserve">800</text>
<text x="306" font-size="10" y="571" clip-path="url(#clipPath2)" stroke="none" xml:space="preserve">800</text>
<line clip-path="url(#clipPath2)" fill="none" x1="349" x2="349" y1="22" y2="24"/>
<line clip-path="url(#clipPath2)" fill="none" x1="349" x2="349" y1="558" y2="556"/>
<line clip-path="url(#clipPath2)" fill="none" x1="384" x2="384" y1="20" y2="24"/>
<line clip-path="url(#clipPath2)" fill="none" x1="384" x2="384" y1="560" y2="556"/>
<text x="373" font-size="10" y="13" clip-path="url(#clipPath2)" stroke="none" xml:space="preserve">1000</text>
<text x="373" font-size="10" y="571" clip-path="url(#clipPath2)" stroke="none" xml:space="preserve">1000</text>
<line clip-path="url(#clipPath2)" fill="none" x1="419" x2="419" y1="22" y2="24"/>
<line clip-path="url(#clipPath2)" fill="none" x1="419" x2="419" y1="558" y2="556"/>
<line clip-path="url(#clipPath2)" fill="none" x1="454" x2="454" y1="20" y2="24"/>
<line clip-path="url(#clipPath2)" fill="none" x1="454" x2="454" y1="560" y2="556"/>
<text x="443" font-size="10" y="13" clip-path="url(#clipPath2)" stroke="none" xml:space="preserve">1200</text>
<text x="443" font-size="10" y="571" clip-path="url(#clipPath2)" stroke="none" xml:space="preserve">1200</text>
<line clip-path="url(#clipPath2)" fill="none" x1="489" x2="489" y1="22" y2="24"/>
<line clip-path="url(#clipPath2)" fill="none" x1="489" x2="489" y1="558" y2="556"/>
<line clip-path="url(#clipPath2)" fill="none" x1="524" x2="524" y1="20" y2="24"/>
<line clip-path="url(#clipPath2)" fill="none" x1="524" x2="524" y1="560" y2="556"/>
<text x="513" font-size="10" y="13" clip-path="url(#clipPath2)" stroke="none" xml:space="preserve">1400</text>
<text x="513" font-size="10" y="571" clip-path="url(#clipPath2)" stroke="none" xml:space="preserve">1400</text>
<line clip-path="url(#clipPath2)" fill="none" x1="559" x2="559" y1="22" y2="24"/>
<line clip-path="url(#clipPath2)" fill="none" x1="559" x2="559" y1="558" y2="556"/>
<line clip-path="url(#clipPath2)" fill="none" x1="594" x2="594" y1="20" y2="24"/>
<line clip-path="url(#clipPath2)" fill="none" x1="594" x2="594" y1="560" y2="556"/>
<text x="583" font-size="10" y="13" clip-path="url(#clipPath2)" stroke="none" xml:space="preserve">1600</text>
<text x="583" font-size="10" y="571" clip-path="url(#clipPath2)" stroke="none" xml:space="preserve">1600</text>
<line clip-path="url(#clipPath2)" fill="none" x1="629" x2="629" y1="22" y2="24"/>
<line clip-path="url(#clipPath2)" fill="none" x1="629" x2="629" y1="558" y2="556"/>
<line clip-path="url(#clipPath2)" fill="none" x1="664" x2="664" y1="20" y2="24"/>
<line clip-path="url(#clipPath2)" fill="none" x1="664" x2="664" y1="560" y2="556"/>
<text x="653" font-size="10" y="13" clip-path="url(#clipPath2)" stroke="none" xml:space="preserve">1800</text>
<text x="653" font-size="10" y="571" clip-path="url(#clipPath2)" stroke="none" xml:space="preserve">1800</text>
<line clip-path="url(#clipPath2)" fill="none" x1="699" x2="699" y1="22" y2="24"/>
<line clip-path="url(#clipPath2)" fill="none" x1="699" x2="699" y1="558" y2="556"/>
<line clip-path="url(#clipPath2)" fill="none" x1="734" x2="734" y1="20" y2="24"/>
<line clip-path="url(#clipPath2)" fill="none" x1="734" x2="734" y1="560" y2="556"/>
<text x="723" font-size="10" y="13" clip-path="url(#clipPath2)" stroke="none" xml:space="preserve">2000</text>
<text x="723" font-size="10" y="571" clip-path="url(#clipPath2)" stroke="none" xml:space="preserve">2000</text>
<line clip-path="url(#clipPath2)" fill="none" x1="769" x2="769" y1="22" y2="24"/>
<line clip-path="url(#clipPath2)" fill="none" x1="769" x2="769" y1="558" y2="556"/>
<line clip-path="url(#clipPath2)" fill="none" x1="804" x2="804" y1="20" y2="24"/>
<line clip-path="url(#clipPath2)" fill="none" x1="804" x2="804" y1="560" y2="556"/>
<text x="793" font-size="10" y="13" clip-path="url(#clipPath2)" stroke="none" xml:space="preserve">2200</text>
<text x="793" font-size="10" y="571" clip-path="url(#clipPath2)" stroke="none" xml:space="preserve">2200</text>
<line clip-path="url(#clipPath2)" fill="none" x1="839" x2="839" y1="22" y2="24"/>
<line clip-path="url(#clipPath2)" fill="none" x1="839" x2="839" y1="558" y2="556"/>
<line clip-path="url(#clipPath2)" fill="none" x1="874" x2="874" y1="20" y2="24"/>
<line clip-path="url(#clipPath2)" fill="none" x1="874" x2="874" y1="560" y2="556"/>
<text x="863" font-size="10" y="13" clip-path="url(#clipPath2)" stroke="none" xml:space="preserve">2400</text>
<text x="863" font-size="10" y="571" clip-path="url(#clipPath2)" stroke="none" xml:space="preserve">2400</text>
<line clip-path="url(#clipPath2)" fill="none" x1="909" x2="909" y1="22" y2="24"/>
<line clip-path="url(#clipPath2)" fill="none" x1="909" x2="909" y1="558" y2="556"/>
<line clip-path="url(#clipPath2)" fill="none" x1="944" x2="944" y1="20" y2="24"/>
<line clip-path="url(#clipPath2)" fill="none" x1="944" x2="944" y1="560" y2="556"/>
<text x="933" font-size="10" y="13" clip-path="url(#clipPath2)" stroke="none" xml:space="preserve">2600</text>
<text x="933" font-size="10" y="571" clip-path="url(#clipPath2)" stroke="none" xml:space="preserve">2600</text>
<line clip-path="url(#clipPath2)" fill="none" x1="979" x2="979" y1="22" y2="24"/>
<line clip-path="url(#clipPath2)" fill="none" x1="979" x2="979" y1="558" y2="556"/>
<line clip-path="url(#clipPath2)" fill="none" x1="1014" x2="1014" y1="20" y2="24"/>
<line clip-path="url(#clipPath2)" fill="none" x1="1014" x2="1014" y1="560" y2="556"/>
<text x="1003" font-size="10" y="13" clip-path="url(#clipPath2)" stroke="none" xml:space="preserve">2800</text>
<text x="1003" font-size="10" y="571" clip-path="url(#clipPath2)" stroke="none" xml:space="preserve">2800</text>
<line clip-path="url(#clipPath2)" fill="none" x1="33" x2="33" y1="26" y2="554"/>
<line clip-path="url(#clipPath2)" fill="none" x1="1049" x2="1049" y1="26" y2="554"/>
<line clip-path="url(#clipPath2)" fill="none" x1="29" x2="33" y1="554" y2="554"/>
<line clip-path="url(#clipPath2)" fill="none" x1="1053" x2="1049" y1="554" y2="554"/>
<text x="22" font-size="10" y="556" clip-path="url(#clipPath2)" stroke="none" xml:space="preserve">0</text>
<text x="1056" font-size="10" y="556" clip-path="url(#clipPath2)" stroke="none" xml:space="preserve">0</text>
<line clip-path="url(#clipPath2)" fill="none" x1="31" x2="33" y1="516" y2="516"/>
<line clip-path="url(#clipPath2)" fill="none" x1="1051" x2="1049" y1="516" y2="516"/>
<line clip-path="url(#clipPath2)" fill="none" x1="29" x2="33" y1="478" y2="478"/>
<line clip-path="url(#clipPath2)" fill="none" x1="1053" x2="1049" y1="478" y2="478"/>
<text x="16" font-size="10" y="480" clip-path="url(#clipPath2)" stroke="none" xml:space="preserve">20</text>
<text x="1056" font-size="10" y="480" clip-path="url(#clipPath2)" stroke="none" xml:space="preserve">20</text>
<line clip-path="url(#clipPath2)" fill="none" x1="31" x2="33" y1="440" y2="440"/>
<line clip-path="url(#clipPath2)" fill="none" x1="1051" x2="1049" y1="440" y2="440"/>
<line clip-path="url(#clipPath2)" fill="none" x1="29" x2="33" y1="403" y2="403"/>
<line clip-path="url(#clipPath2)" fill="none" x1="1053" x2="1049" y1="403" y2="403"/>
<text x="16" font-size="10" y="405" clip-path="url(#clipPath2)" stroke="none" xml:space="preserve">40</text>
<text x="1056" font-size="10" y="405" clip-path="url(#clipPath2)" stroke="none" xml:space="preserve">40</text>
<line clip-path="url(#clipPath2)" fill="none" x1="31" x2="33" y1="365" y2="365"/>
<line clip-path="url(#clipPath2)" fill="none" x1="1051" x2="1049" y1="365" y2="365"/>
<line clip-path="url(#clipPath2)" fill="none" x1="29" x2="33" y1="327" y2="327"/>
<line clip-path="url(#clipPath2)" fill="none" x1="1053" x2="1049" y1="327" y2="327"/>
<text x="16" font-size="10" y="329" clip-path="url(#clipPath2)" stroke="none" xml:space="preserve">60</text>
<text x="1056" font-size="10" y="329" clip-path="url(#clipPath2)" stroke="none" xml:space="preserve">60</text>
<line clip-path="url(#clipPath2)" fill="none" x1="31" x2="33" y1="290" y2="290"/>
<line clip-path="url(#clipPath2)" fill="none" x1="1051" x2="1049" y1="290" y2="290"/>
<line clip-path="url(#clipPath2)" fill="none" x1="29" x2="33" y1="252" y2="252"/>
<line clip-path="url(#clipPath2)" fill="none" x1="1053" x2="1049" y1="252" y2="252"/>
<text x="16" font-size="10" y="254" clip-path="url(#clipPath2)" stroke="none" xml:space="preserve">80</text>
<text x="1056" font-size="10" y="254" clip-path="url(#clipPath2)" stroke="none" xml:space="preserve">80</text>
<line clip-path="url(#clipPath2)" fill="none" x1="31" x2="33" y1="214" y2="214"/>
<line clip-path="url(#clipPath2)" fill="none" x1="1051" x2="1049" y1="214" y2="214"/>
<line clip-path="url(#clipPath2)" fill="none" x1="29" x2="33" y1="176" y2="176"/>
<line clip-path="url(#clipPath2)" fill="none" x1="1053" x2="1049" y1="176" y2="176"/>
<text x="10" font-size="10" y="178" clip-path="url(#clipPath2)" stroke="none" xml:space="preserve">100</text>
<text x="1056" font-size="10" y="178" clip-path="url(#clipPath2)" stroke="none" xml:space="preserve">100</text>
<line clip-path="url(#clipPath2)" fill="none" x1="31" x2="33" y1="139" y2="139"/>
<line clip-path="url(#clipPath2)" fill="none" x1="1051" x2="1049" y1="139" y2="139"/>
<line clip-path="url(#clipPath2)" fill="none" x1="29" x2="33" y1="101" y2="101"/>
<line clip-path="url(#clipPath2)" fill="none" x1="1053" x2="1049" y1="101" y2="101"/>
<text x="10" font-size="10" y="103" clip-path="url(#clipPath2)" stroke="none" xml:space="preserve">120</text>
<text x="1056" font-size="10" y="103" clip-path="url(#clipPath2)" stroke="none" xml:space="preserve">120</text>
<line clip-path="url(#clipPath2)" fill="none" x1="31" x2="33" y1="63" y2="63"/>
<line clip-path="url(#clipPath2)" fill="none" x1="1051" x2="1049" y1="63" y2="63"/>
<line clip-path="url(#clipPath2)" fill="none" x1="29" x2="33" y1="26" y2="26"/>
<line clip-path="url(#clipPath2)" fill="none" x1="1053" x2="1049" y1="26" y2="26"/>
<text x="10" font-size="10" y="28" clip-path="url(#clipPath2)" stroke="none" xml:space="preserve">140</text>
<text x="1056" font-size="10" y="28" clip-path="url(#clipPath2)" stroke="none" xml:space="preserve">140</text>
</g>
</g>
</svg>
