<?xml version="1.0" encoding="UTF-8"?><svg xmlns="http://www.w3.org/2000/svg" xmlns:xlink="http://www.w3.org/1999/xlink" stroke-dasharray="none" shape-rendering="auto" font-family="'Dialog'" width="1082" text-rendering="auto" fill-opacity="1" contentScriptType="text/ecmascript" color-interpolation="auto" color-rendering="auto" preserveAspectRatio="xMidYMid meet" font-size="12" fill="black" stroke="black" image-rendering="auto" stroke-miterlimit="10" zoomAndPan="magnify" version="1.0" stroke-linecap="square" stroke-linejoin="miter" contentStyleType="text/css" font-style="normal" height="580" stroke-width="1" stroke-dashoffset="0" font-weight="normal" stroke-opacity="1">
<!--Generated by the Batik Graphics2D SVG Generator-->
<defs id="genericDefs"/>
<g>
<defs id="defs1">
<clipPath clipPathUnits="userSpaceOnUse" id="clipPath1">
<path d="M27 25 L1055 25 L1055 555 L27 555 L27 25 Z"/>
</clipPath>
<clipPath clipPathUnits="userSpaceOnUse" id="clipPath2">
<path d="M-1 -1 L1083 -1 L1083 581 L-1 581 L-1 -1 Z"/>
</clipPath>
</defs>
<g fill="white" text-rendering="geometricPrecision" font-family="'Segoe UI'" stroke-linejoin="round" stroke="white" stroke-width="0" stroke-miterlimit="0">
<rect x="28" y="26" clip-path="url(#clipPath1)" width="1026" height="528" stroke="none"/>
</g>
<g stroke-linecap="butt" fill="rgb(204,204,204)" text-rendering="geometricPrecision" font-family="'Segoe UI'" stroke-dasharray="3,3" stroke="rgb(204,204,204)">
<line clip-path="url(#clipPath1)" fill="none" x1="28" x2="28" y1="26" y2="554"/>
<line clip-path="url(#clipPath1)" fill="none" x1="78" x2="78" y1="26" y2="554"/>
<line clip-path="url(#clipPath1)" fill="none" x1="128" x2="128" y1="26" y2="554"/>
<line clip-path="url(#clipPath1)" fill="none" x1="178" x2="178" y1="26" y2="554"/>
<line clip-path="url(#clipPath1)" fill="none" x1="229" x2="229" y1="26" y2="554"/>
<line clip-path="url(#clipPath1)" fill="none" x1="279" x2="279" y1="26" y2="554"/>
<line clip-path="url(#clipPath1)" fill="none" x1="329" x2="329" y1="26" y2="554"/>
<line clip-path="url(#clipPath1)" fill="none" x1="380" x2="380" y1="26" y2="554"/>
<line clip-path="url(#clipPath1)" fill="none" x1="430" x2="430" y1="26" y2="554"/>
<line clip-path="url(#clipPath1)" fill="none" x1="480" x2="480" y1="26" y2="554"/>
<line clip-path="url(#clipPath1)" fill="none" x1="530" x2="530" y1="26" y2="554"/>
<line clip-path="url(#clipPath1)" fill="none" x1="581" x2="581" y1="26" y2="554"/>
<line clip-path="url(#clipPath1)" fill="none" x1="631" x2="631" y1="26" y2="554"/>
<line clip-path="url(#clipPath1)" fill="none" x1="681" x2="681" y1="26" y2="554"/>
<line clip-path="url(#clipPath1)" fill="none" x1="732" x2="732" y1="26" y2="554"/>
<line clip-path="url(#clipPath1)" fill="none" x1="782" x2="782" y1="26" y2="554"/>
<line clip-path="url(#clipPath1)" fill="none" x1="832" x2="832" y1="26" y2="554"/>
<line clip-path="url(#clipPath1)" fill="none" x1="883" x2="883" y1="26" y2="554"/>
<line clip-path="url(#clipPath1)" fill="none" x1="933" x2="933" y1="26" y2="554"/>
<line clip-path="url(#clipPath1)" fill="none" x1="983" x2="983" y1="26" y2="554"/>
<line clip-path="url(#clipPath1)" fill="none" x1="1033" x2="1033" y1="26" y2="554"/>
<line clip-path="url(#clipPath1)" fill="none" x1="28" x2="1054" y1="554" y2="554"/>
<line clip-path="url(#clipPath1)" fill="none" x1="28" x2="1054" y1="466" y2="466"/>
<line clip-path="url(#clipPath1)" fill="none" x1="28" x2="1054" y1="378" y2="378"/>
<line clip-path="url(#clipPath1)" fill="none" x1="28" x2="1054" y1="290" y2="290"/>
<line clip-path="url(#clipPath1)" fill="none" x1="28" x2="1054" y1="202" y2="202"/>
<line clip-path="url(#clipPath1)" fill="none" x1="28" x2="1054" y1="114" y2="114"/>
<line clip-path="url(#clipPath1)" fill="none" x1="28" x2="1054" y1="26" y2="26"/>
<rect x="27" y="545" clip-path="url(#clipPath1)" fill="rgb(0,0,139)" width="5" height="5" stroke="none"/>
<line clip-path="url(#clipPath1)" fill="none" x1="29" x2="114" y1="547" y2="538" stroke-dasharray="none" stroke="rgb(0,0,139)"/>
<rect x="112" y="536" clip-path="url(#clipPath1)" fill="rgb(0,0,139)" width="5" stroke-dasharray="none" height="5" stroke="none"/>
<line clip-path="url(#clipPath1)" fill="none" x1="114" x2="132" y1="538" y2="547" stroke-dasharray="none" stroke="rgb(0,0,139)"/>
<rect x="130" y="545" clip-path="url(#clipPath1)" fill="rgb(0,0,139)" width="5" stroke-dasharray="none" height="5" stroke="none"/>
<line clip-path="url(#clipPath1)" fill="none" x1="132" x2="166" y1="547" y2="538" stroke-dasharray="none" stroke="rgb(0,0,139)"/>
<rect x="164" y="536" clip-path="url(#clipPath1)" fill="rgb(0,0,139)" width="5" stroke-dasharray="none" height="5" stroke="none"/>
<line clip-path="url(#clipPath1)" fill="none" x1="166" x2="200" y1="538" y2="547" stroke-dasharray="none" stroke="rgb(0,0,139)"/>
<rect x="198" y="545" clip-path="url(#clipPath1)" fill="rgb(0,0,139)" width="5" stroke-dasharray="none" height="5" stroke="none"/>
<line clip-path="url(#clipPath1)" fill="none" x1="200" x2="212" y1="547" y2="538" stroke-dasharray="none" stroke="rgb(0,0,139)"/>
<rect x="210" y="536" clip-path="url(#clipPath1)" fill="rgb(0,0,139)" width="5" stroke-dasharray="none" height="5" stroke="none"/>
<line clip-path="url(#clipPath1)" fill="none" x1="212" x2="290" y1="538" y2="547" stroke-dasharray="none" stroke="rgb(0,0,139)"/>
<rect x="288" y="545" clip-path="url(#clipPath1)" fill="rgb(0,0,139)" width="5" stroke-dasharray="none" height="5" stroke="none"/>
<line clip-path="url(#clipPath1)" fill="none" x1="290" x2="509" y1="547" y2="538" stroke-dasharray="none" stroke="rgb(0,0,139)"/>
<rect x="507" y="536" clip-path="url(#clipPath1)" fill="rgb(0,0,139)" width="5" stroke-dasharray="none" height="5" stroke="none"/>
<line clip-path="url(#clipPath1)" fill="none" x1="509" x2="512" y1="538" y2="105" stroke-dasharray="none" stroke="rgb(0,0,139)"/>
<rect x="510" y="103" clip-path="url(#clipPath1)" fill="rgb(0,0,139)" width="5" stroke-dasharray="none" height="5" stroke="none"/>
<line clip-path="url(#clipPath1)" fill="none" x1="512" x2="616" y1="105" y2="538" stroke-dasharray="none" stroke="rgb(0,0,139)"/>
<rect x="614" y="536" clip-path="url(#clipPath1)" fill="rgb(0,0,139)" width="5" stroke-dasharray="none" height="5" stroke="none"/>
<line clip-path="url(#clipPath1)" fill="none" x1="616" x2="638" y1="538" y2="547" stroke-dasharray="none" stroke="rgb(0,0,139)"/>
<rect x="636" y="545" clip-path="url(#clipPath1)" fill="rgb(0,0,139)" width="5" stroke-dasharray="none" height="5" stroke="none"/>
<line clip-path="url(#clipPath1)" fill="none" x1="638" x2="709" y1="547" y2="538" stroke-dasharray="none" stroke="rgb(0,0,139)"/>
<rect x="707" y="536" clip-path="url(#clipPath1)" fill="rgb(0,0,139)" width="5" stroke-dasharray="none" height="5" stroke="none"/>
<line clip-path="url(#clipPath1)" fill="none" x1="709" x2="769" y1="538" y2="547" stroke-dasharray="none" stroke="rgb(0,0,139)"/>
<rect x="767" y="545" clip-path="url(#clipPath1)" fill="rgb(0,0,139)" width="5" stroke-dasharray="none" height="5" stroke="none"/>
<line clip-path="url(#clipPath1)" fill="none" x1="769" x2="878" y1="547" y2="538" stroke-dasharray="none" stroke="rgb(0,0,139)"/>
<rect x="876" y="536" clip-path="url(#clipPath1)" fill="rgb(0,0,139)" width="5" stroke-dasharray="none" height="5" stroke="none"/>
<line clip-path="url(#clipPath1)" fill="none" x1="878" x2="1041" y1="538" y2="547" stroke-dasharray="none" stroke="rgb(0,0,139)"/>
<rect x="1039" y="545" clip-path="url(#clipPath1)" fill="rgb(0,0,139)" width="5" stroke-dasharray="none" height="5" stroke="none"/>
<rect x="28" y="26" clip-path="url(#clipPath2)" fill="none" width="1026" stroke-dasharray="none" height="528" stroke="black"/>
</g>
<g text-rendering="geometricPrecision" font-size="13" font-family="'Arial'" stroke-linecap="butt">
<line clip-path="url(#clipPath2)" fill="none" x1="28" x2="1054" y1="24" y2="24"/>
<line clip-path="url(#clipPath2)" fill="none" x1="28" x2="1054" y1="556" y2="556"/>
<line clip-path="url(#clipPath2)" fill="none" x1="28" x2="28" y1="20" y2="24"/>
<line clip-path="url(#clipPath2)" fill="none" x1="28" x2="28" y1="560" y2="556"/>
<text x="26" font-size="10" y="13" clip-path="url(#clipPath2)" stroke="none" xml:space="preserve">0</text>
<text x="26" font-size="10" y="571" clip-path="url(#clipPath2)" stroke="none" xml:space="preserve">0</text>
<line clip-path="url(#clipPath2)" fill="none" x1="53" x2="53" y1="22" y2="24"/>
<line clip-path="url(#clipPath2)" fill="none" x1="53" x2="53" y1="558" y2="556"/>
<line clip-path="url(#clipPath2)" fill="none" x1="78" x2="78" y1="20" y2="24"/>
<line clip-path="url(#clipPath2)" fill="none" x1="78" x2="78" y1="560" y2="556"/>
<text x="70" font-size="10" y="13" clip-path="url(#clipPath2)" stroke="none" xml:space="preserve">200</text>
<text x="70" font-size="10" y="571" clip-path="url(#clipPath2)" stroke="none" xml:space="preserve">200</text>
<line clip-path="url(#clipPath2)" fill="none" x1="103" x2="103" y1="22" y2="24"/>
<line clip-path="url(#clipPath2)" fill="none" x1="103" x2="103" y1="558" y2="556"/>
<line clip-path="url(#clipPath2)" fill="none" x1="128" x2="128" y1="20" y2="24"/>
<line clip-path="url(#clipPath2)" fill="none" x1="128" x2="128" y1="560" y2="556"/>
<text x="120" font-size="10" y="13" clip-path="url(#clipPath2)" stroke="none" xml:space="preserve">400</text>
<text x="120" font-size="10" y="571" clip-path="url(#clipPath2)" stroke="none" xml:space="preserve">400</text>
<line clip-path="url(#clipPath2)" fill="none" x1="153" x2="153" y1="22" y2="24"/>
<line clip-path="url(#clipPath2)" fill="none" x1="153" x2="153" y1="558" y2="556"/>
<line clip-path="url(#clipPath2)" fill="none" x1="178" x2="178" y1="20" y2="24"/>
<line clip-path="url(#clipPath2)" fill="none" x1="178" x2="178" y1="560" y2="556"/>
<text x="170" font-size="10" y="13" clip-path="url(#clipPath2)" stroke="none" xml:space="preserve">600</text>
<text x="170" font-size="10" y="571" clip-path="url(#clipPath2)" stroke="none" xml:space="preserve">600</text>
<line clip-path="url(#clipPath2)" fill="none" x1="204" x2="204" y1="22" y2="24"/>
<line clip-path="url(#clipPath2)" fill="none" x1="204" x2="204" y1="558" y2="556"/>
<line clip-path="url(#clipPath2)" fill="none" x1="229" x2="229" y1="20" y2="24"/>
<line clip-path="url(#clipPath2)" fill="none" x1="229" x2="229" y1="560" y2="556"/>
<text x="221" font-size="10" y="13" clip-path="url(#clipPath2)" stroke="none" xml:space="preserve">800</text>
<text x="221" font-size="10" y="571" clip-path="url(#clipPath2)" stroke="none" xml:space="preserve">800</text>
<line clip-path="url(#clipPath2)" fill="none" x1="254" x2="254" y1="22" y2="24"/>
<line clip-path="url(#clipPath2)" fill="none" x1="254" x2="254" y1="558" y2="556"/>
<line clip-path="url(#clipPath2)" fill="none" x1="279" x2="279" y1="20" y2="24"/>
<line clip-path="url(#clipPath2)" fill="none" x1="279" x2="279" y1="560" y2="556"/>
<text x="268" font-size="10" y="13" clip-path="url(#clipPath2)" stroke="none" xml:space="preserve">1000</text>
<text x="268" font-size="10" y="571" clip-path="url(#clipPath2)" stroke="none" xml:space="preserve">1000</text>
<line clip-path="url(#clipPath2)" fill="none" x1="304" x2="304" y1="22" y2="24"/>
<line clip-path="url(#clipPath2)" fill="none" x1="304" x2="304" y1="558" y2="556"/>
<line clip-path="url(#clipPath2)" fill="none" x1="329" x2="329" y1="20" y2="24"/>
<line clip-path="url(#clipPath2)" fill="none" x1="329" x2="329" y1="560" y2="556"/>
<text x="318" font-size="10" y="13" clip-path="url(#clipPath2)" stroke="none" xml:space="preserve">1200</text>
<text x="318" font-size="10" y="571" clip-path="url(#clipPath2)" stroke="none" xml:space="preserve">1200</text>
<line clip-path="url(#clipPath2)" fill="none" x1="354" x2="354" y1="22" y2="24"/>
<line clip-path="url(#clipPath2)" fill="none" x1="354" x2="354" y1="558" y2="556"/>
<line clip-path="url(#clipPath2)" fill="none" x1="380" x2="380" y1="20" y2="24"/>
<line clip-path="url(#clipPath2)" fill="none" x1="380" x2="380" y1="560" y2="556"/>
<text x="369" font-size="10" y="13" clip-path="url(#clipPath2)" stroke="none" xml:space="preserve">1400</text>
<text x="369" font-size="10" y="571" clip-path="url(#clipPath2)" stroke="none" xml:space="preserve">1400</text>
<line clip-path="url(#clipPath2)" fill="none" x1="405" x2="405" y1="22" y2="24"/>
<line clip-path="url(#clipPath2)" fill="none" x1="405" x2="405" y1="558" y2="556"/>
<line clip-path="url(#clipPath2)" fill="none" x1="430" x2="430" y1="20" y2="24"/>
<line clip-path="url(#clipPath2)" fill="none" x1="430" x2="430" y1="560" y2="556"/>
<text x="419" font-size="10" y="13" clip-path="url(#clipPath2)" stroke="none" xml:space="preserve">1600</text>
<text x="419" font-size="10" y="571" clip-path="url(#clipPath2)" stroke="none" xml:space="preserve">1600</text>
<line clip-path="url(#clipPath2)" fill="none" x1="455" x2="455" y1="22" y2="24"/>
<line clip-path="url(#clipPath2)" fill="none" x1="455" x2="455" y1="558" y2="556"/>
<line clip-path="url(#clipPath2)" fill="none" x1="480" x2="480" y1="20" y2="24"/>
<line clip-path="url(#clipPath2)" fill="none" x1="480" x2="480" y1="560" y2="556"/>
<text x="469" font-size="10" y="13" clip-path="url(#clipPath2)" stroke="none" xml:space="preserve">1800</text>
<text x="469" font-size="10" y="571" clip-path="url(#clipPath2)" stroke="none" xml:space="preserve">1800</text>
<line clip-path="url(#clipPath2)" fill="none" x1="505" x2="505" y1="22" y2="24"/>
<line clip-path="url(#clipPath2)" fill="none" x1="505" x2="505" y1="558" y2="556"/>
<line clip-path="url(#clipPath2)" fill="none" x1="530" x2="530" y1="20" y2="24"/>
<line clip-path="url(#clipPath2)" fill="none" x1="530" x2="530" y1="560" y2="556"/>
<text x="519" font-size="10" y="13" clip-path="url(#clipPath2)" stroke="none" xml:space="preserve">2000</text>
<text x="519" font-size="10" y="571" clip-path="url(#clipPath2)" stroke="none" xml:space="preserve">2000</text>
<line clip-path="url(#clipPath2)" fill="none" x1="556" x2="556" y1="22" y2="24"/>
<line clip-path="url(#clipPath2)" fill="none" x1="556" x2="556" y1="558" y2="556"/>
<line clip-path="url(#clipPath2)" fill="none" x1="581" x2="581" y1="20" y2="24"/>
<line clip-path="url(#clipPath2)" fill="none" x1="581" x2="581" y1="560" y2="556"/>
<text x="570" font-size="10" y="13" clip-path="url(#clipPath2)" stroke="none" xml:space="preserve">2200</text>
<text x="570" font-size="10" y="571" clip-path="url(#clipPath2)" stroke="none" xml:space="preserve">2200</text>
<line clip-path="url(#clipPath2)" fill="none" x1="606" x2="606" y1="22" y2="24"/>
<line clip-path="url(#clipPath2)" fill="none" x1="606" x2="606" y1="558" y2="556"/>
<line clip-path="url(#clipPath2)" fill="none" x1="631" x2="631" y1="20" y2="24"/>
<line clip-path="url(#clipPath2)" fill="none" x1="631" x2="631" y1="560" y2="556"/>
<text x="620" font-size="10" y="13" clip-path="url(#clipPath2)" stroke="none" xml:space="preserve">2400</text>
<text x="620" font-size="10" y="571" clip-path="url(#clipPath2)" stroke="none" xml:space="preserve">2400</text>
<line clip-path="url(#clipPath2)" fill="none" x1="656" x2="656" y1="22" y2="24"/>
<line clip-path="url(#clipPath2)" fill="none" x1="656" x2="656" y1="558" y2="556"/>
<line clip-path="url(#clipPath2)" fill="none" x1="681" x2="681" y1="20" y2="24"/>
<line clip-path="url(#clipPath2)" fill="none" x1="681" x2="681" y1="560" y2="556"/>
<text x="670" font-size="10" y="13" clip-path="url(#clipPath2)" stroke="none" xml:space="preserve">2600</text>
<text x="670" font-size="10" y="571" clip-path="url(#clipPath2)" stroke="none" xml:space="preserve">2600</text>
<line clip-path="url(#clipPath2)" fill="none" x1="706" x2="706" y1="22" y2="24"/>
<line clip-path="url(#clipPath2)" fill="none" x1="706" x2="706" y1="558" y2="556"/>
<line clip-path="url(#clipPath2)" fill="none" x1="732" x2="732" y1="20" y2="24"/>
<line clip-path="url(#clipPath2)" fill="none" x1="732" x2="732" y1="560" y2="556"/>
<text x="721" font-size="10" y="13" clip-path="url(#clipPath2)" stroke="none" xml:space="preserve">2800</text>
<text x="721" font-size="10" y="571" clip-path="url(#clipPath2)" stroke="none" xml:space="preserve">2800</text>
<line clip-path="url(#clipPath2)" fill="none" x1="757" x2="757" y1="22" y2="24"/>
<line clip-path="url(#clipPath2)" fill="none" x1="757" x2="757" y1="558" y2="556"/>
<line clip-path="url(#clipPath2)" fill="none" x1="782" x2="782" y1="20" y2="24"/>
<line clip-path="url(#clipPath2)" fill="none" x1="782" x2="782" y1="560" y2="556"/>
<text x="771" font-size="10" y="13" clip-path="url(#clipPath2)" stroke="none" xml:space="preserve">3000</text>
<text x="771" font-size="10" y="571" clip-path="url(#clipPath2)" stroke="none" xml:space="preserve">3000</text>
<line clip-path="url(#clipPath2)" fill="none" x1="807" x2="807" y1="22" y2="24"/>
<line clip-path="url(#clipPath2)" fill="none" x1="807" x2="807" y1="558" y2="556"/>
<line clip-path="url(#clipPath2)" fill="none" x1="832" x2="832" y1="20" y2="24"/>
<line clip-path="url(#clipPath2)" fill="none" x1="832" x2="832" y1="560" y2="556"/>
<text x="821" font-size="10" y="13" clip-path="url(#clipPath2)" stroke="none" xml:space="preserve">3200</text>
<text x="821" font-size="10" y="571" clip-path="url(#clipPath2)" stroke="none" xml:space="preserve">3200</text>
<line clip-path="url(#clipPath2)" fill="none" x1="857" x2="857" y1="22" y2="24"/>
<line clip-path="url(#clipPath2)" fill="none" x1="857" x2="857" y1="558" y2="556"/>
<line clip-path="url(#clipPath2)" fill="none" x1="883" x2="883" y1="20" y2="24"/>
<line clip-path="url(#clipPath2)" fill="none" x1="883" x2="883" y1="560" y2="556"/>
<text x="872" font-size="10" y="13" clip-path="url(#clipPath2)" stroke="none" xml:space="preserve">3400</text>
<text x="872" font-size="10" y="571" clip-path="url(#clipPath2)" stroke="none" xml:space="preserve">3400</text>
<line clip-path="url(#clipPath2)" fill="none" x1="908" x2="908" y1="22" y2="24"/>
<line clip-path="url(#clipPath2)" fill="none" x1="908" x2="908" y1="558" y2="556"/>
<line clip-path="url(#clipPath2)" fill="none" x1="933" x2="933" y1="20" y2="24"/>
<line clip-path="url(#clipPath2)" fill="none" x1="933" x2="933" y1="560" y2="556"/>
<text x="922" font-size="10" y="13" clip-path="url(#clipPath2)" stroke="none" xml:space="preserve">3600</text>
<text x="922" font-size="10" y="571" clip-path="url(#clipPath2)" stroke="none" xml:space="preserve">3600</text>
<line clip-path="url(#clipPath2)" fill="none" x1="958" x2="958" y1="22" y2="24"/>
<line clip-path="url(#clipPath2)" fill="none" x1="958" x2="958" y1="558" y2="556"/>
<line clip-path="url(#clipPath2)" fill="none" x1="983" x2="983" y1="20" y2="24"/>
<line clip-path="url(#clipPath2)" fill="none" x1="983" x2="983" y1="560" y2="556"/>
<text x="972" font-size="10" y="13" clip-path="url(#clipPath2)" stroke="none" xml:space="preserve">3800</text>
<text x="972" font-size="10" y="571" clip-path="url(#clipPath2)" stroke="none" xml:space="preserve">3800</text>
<line clip-path="url(#clipPath2)" fill="none" x1="1008" x2="1008" y1="22" y2="24"/>
<line clip-path="url(#clipPath2)" fill="none" x1="1008" x2="1008" y1="558" y2="556"/>
<line clip-path="url(#clipPath2)" fill="none" x1="1033" x2="1033" y1="20" y2="24"/>
<line clip-path="url(#clipPath2)" fill="none" x1="1033" x2="1033" y1="560" y2="556"/>
<text x="1022" font-size="10" y="13" clip-path="url(#clipPath2)" stroke="none" xml:space="preserve">4000</text>
<text x="1022" font-size="10" y="571" clip-path="url(#clipPath2)" stroke="none" xml:space="preserve">4000</text>
<line clip-path="url(#clipPath2)" fill="none" x1="26" x2="26" y1="26" y2="554"/>
<line clip-path="url(#clipPath2)" fill="none" x1="1056" x2="1056" y1="26" y2="554"/>
<line clip-path="url(#clipPath2)" fill="none" x1="22" x2="26" y1="554" y2="554"/>
<line clip-path="url(#clipPath2)" fill="none" x1="1060" x2="1056" y1="554" y2="554"/>
<text x="15" font-size="10" y="556" clip-path="url(#clipPath2)" stroke="none" xml:space="preserve">0</text>
<text x="1063" font-size="10" y="556" clip-path="url(#clipPath2)" stroke="none" xml:space="preserve">0</text>
<line clip-path="url(#clipPath2)" fill="none" x1="24" x2="26" y1="536" y2="536"/>
<line clip-path="url(#clipPath2)" fill="none" x1="1058" x2="1056" y1="536" y2="536"/>
<line clip-path="url(#clipPath2)" fill="none" x1="24" x2="26" y1="518" y2="518"/>
<line clip-path="url(#clipPath2)" fill="none" x1="1058" x2="1056" y1="518" y2="518"/>
<line clip-path="url(#clipPath2)" fill="none" x1="24" x2="26" y1="501" y2="501"/>
<line clip-path="url(#clipPath2)" fill="none" x1="1058" x2="1056" y1="501" y2="501"/>
<line clip-path="url(#clipPath2)" fill="none" x1="24" x2="26" y1="483" y2="483"/>
<line clip-path="url(#clipPath2)" fill="none" x1="1058" x2="1056" y1="483" y2="483"/>
<line clip-path="url(#clipPath2)" fill="none" x1="22" x2="26" y1="466" y2="466"/>
<line clip-path="url(#clipPath2)" fill="none" x1="1060" x2="1056" y1="466" y2="466"/>
<text x="3" font-size="10" y="468" clip-path="url(#clipPath2)" stroke="none" xml:space="preserve">1.0</text>
<text x="1063" font-size="10" y="468" clip-path="url(#clipPath2)" stroke="none" xml:space="preserve">1.0</text>
<line clip-path="url(#clipPath2)" fill="none" x1="24" x2="26" y1="448" y2="448"/>
<line clip-path="url(#clipPath2)" fill="none" x1="1058" x2="1056" y1="448" y2="448"/>
<line clip-path="url(#clipPath2)" fill="none" x1="24" x2="26" y1="431" y2="431"/>
<line clip-path="url(#clipPath2)" fill="none" x1="1058" x2="1056" y1="431" y2="431"/>
<line clip-path="url(#clipPath2)" fill="none" x1="24" x2="26" y1="413" y2="413"/>
<line clip-path="url(#clipPath2)" fill="none" x1="1058" x2="1056" y1="413" y2="413"/>
<line clip-path="url(#clipPath2)" fill="none" x1="24" x2="26" y1="395" y2="395"/>
<line clip-path="url(#clipPath2)" fill="none" x1="1058" x2="1056" y1="395" y2="395"/>
<line clip-path="url(#clipPath2)" fill="none" x1="22" x2="26" y1="378" y2="378"/>
<line clip-path="url(#clipPath2)" fill="none" x1="1060" x2="1056" y1="378" y2="378"/>
<text x="3" font-size="10" y="380" clip-path="url(#clipPath2)" stroke="none" xml:space="preserve">2.0</text>
<text x="1063" font-size="10" y="380" clip-path="url(#clipPath2)" stroke="none" xml:space="preserve">2.0</text>
<line clip-path="url(#clipPath2)" fill="none" x1="24" x2="26" y1="360" y2="360"/>
<line clip-path="url(#clipPath2)" fill="none" x1="1058" x2="1056" y1="360" y2="360"/>
<line clip-path="url(#clipPath2)" fill="none" x1="24" x2="26" y1="343" y2="343"/>
<line clip-path="url(#clipPath2)" fill="none" x1="1058" x2="1056" y1="343" y2="343"/>
<line clip-path="url(#clipPath2)" fill="none" x1="24" x2="26" y1="325" y2="325"/>
<line clip-path="url(#clipPath2)" fill="none" x1="1058" x2="1056" y1="325" y2="325"/>
<line clip-path="url(#clipPath2)" fill="none" x1="24" x2="26" y1="308" y2="308"/>
<line clip-path="url(#clipPath2)" fill="none" x1="1058" x2="1056" y1="308" y2="308"/>
<line clip-path="url(#clipPath2)" fill="none" x1="22" x2="26" y1="290" y2="290"/>
<line clip-path="url(#clipPath2)" fill="none" x1="1060" x2="1056" y1="290" y2="290"/>
<text x="3" font-size="10" y="292" clip-path="url(#clipPath2)" stroke="none" xml:space="preserve">3.0</text>
<text x="1063" font-size="10" y="292" clip-path="url(#clipPath2)" stroke="none" xml:space="preserve">3.0</text>
<line clip-path="url(#clipPath2)" fill="none" x1="24" x2="26" y1="272" y2="272"/>
<line clip-path="url(#clipPath2)" fill="none" x1="1058" x2="1056" y1="272" y2="272"/>
<line clip-path="url(#clipPath2)" fill="none" x1="24" x2="26" y1="255" y2="255"/>
<line clip-path="url(#clipPath2)" fill="none" x1="1058" x2="1056" y1="255" y2="255"/>
<line clip-path="url(#clipPath2)" fill="none" x1="24" x2="26" y1="237" y2="237"/>
<line clip-path="url(#clipPath2)" fill="none" x1="1058" x2="1056" y1="237" y2="237"/>
<line clip-path="url(#clipPath2)" fill="none" x1="24" x2="26" y1="220" y2="220"/>
<line clip-path="url(#clipPath2)" fill="none" x1="1058" x2="1056" y1="220" y2="220"/>
<line clip-path="url(#clipPath2)" fill="none" x1="22" x2="26" y1="202" y2="202"/>
<line clip-path="url(#clipPath2)" fill="none" x1="1060" x2="1056" y1="202" y2="202"/>
<text x="3" font-size="10" y="204" clip-path="url(#clipPath2)" stroke="none" xml:space="preserve">4.0</text>
<text x="1063" font-size="10" y="204" clip-path="url(#clipPath2)" stroke="none" xml:space="preserve">4.0</text>
<line clip-path="url(#clipPath2)" fill="none" x1="24" x2="26" y1="185" y2="185"/>
<line clip-path="url(#clipPath2)" fill="none" x1="1058" x2="1056" y1="185" y2="185"/>
<line clip-path="url(#clipPath2)" fill="none" x1="24" x2="26" y1="167" y2="167"/>
<line clip-path="url(#clipPath2)" fill="none" x1="1058" x2="1056" y1="167" y2="167"/>
<line clip-path="url(#clipPath2)" fill="none" x1="24" x2="26" y1="149" y2="149"/>
<line clip-path="url(#clipPath2)" fill="none" x1="1058" x2="1056" y1="149" y2="149"/>
<line clip-path="url(#clipPath2)" fill="none" x1="24" x2="26" y1="132" y2="132"/>
<line clip-path="url(#clipPath2)" fill="none" x1="1058" x2="1056" y1="132" y2="132"/>
<line clip-path="url(#clipPath2)" fill="none" x1="22" x2="26" y1="114" y2="114"/>
<line clip-path="url(#clipPath2)" fill="none" x1="1060" x2="1056" y1="114" y2="114"/>
<text x="3" font-size="10" y="116" clip-path="url(#clipPath2)" stroke="none" xml:space="preserve">5.0</text>
<text x="1063" font-size="10" y="116" clip-path="url(#clipPath2)" stroke="none" xml:space="preserve">5.0</text>
<line clip-path="url(#clipPath2)" fill="none" x1="24" x2="26" y1="97" y2="97"/>
<line clip-path="url(#clipPath2)" fill="none" x1="1058" x2="1056" y1="97" y2="97"/>
<line clip-path="url(#clipPath2)" fill="none" x1="24" x2="26" y1="79" y2="79"/>
<line clip-path="url(#clipPath2)" fill="none" x1="1058" x2="1056" y1="79" y2="79"/>
<line clip-path="url(#clipPath2)" fill="none" x1="24" x2="26" y1="62" y2="62"/>
<line clip-path="url(#clipPath2)" fill="none" x1="1058" x2="1056" y1="62" y2="62"/>
<line clip-path="url(#clipPath2)" fill="none" x1="24" x2="26" y1="44" y2="44"/>
<line clip-path="url(#clipPath2)" fill="none" x1="1058" x2="1056" y1="44" y2="44"/>
<line clip-path="url(#clipPath2)" fill="none" x1="22" x2="26" y1="26" y2="26"/>
<line clip-path="url(#clipPath2)" fill="none" x1="1060" x2="1056" y1="26" y2="26"/>
<text x="3" font-size="10" y="28" clip-path="url(#clipPath2)" stroke="none" xml:space="preserve">6.0</text>
<text x="1063" font-size="10" y="28" clip-path="url(#clipPath2)" stroke="none" xml:space="preserve">6.0</text>
</g>
</g>
</svg>
